<?xml version="1.0" encoding="UTF-8"?>
<svg version="1.1" xmlns="http://www.w3.org/2000/svg" width="403" height="448">
<path d="M0 0 C1.71875 0.125 1.71875 0.125 4 1 C5.6589578 2.97151507 7.07511669 4.86961722 8.5 7 C9.38272692 8.27740289 10.26554341 9.55474389 11.1484375 10.83203125 C11.84211426 11.84837646 11.84211426 11.84837646 12.54980469 12.88525391 C15.03720084 16.51249726 17.58478223 20.09715427 20.125 23.6875 C20.89360352 24.77804688 20.89360352 24.77804688 21.67773438 25.890625 C25.03961923 30.65870365 28.45263329 35.38590228 31.8984375 40.09375 C33.99687994 42.99568527 36.05969506 45.92014573 38.11694336 48.85131836 C43.54838131 56.5900403 49.09007917 64.23670975 54.71289062 71.83740234 C60.87837874 80.175055 66.95950469 88.57144439 73 97 C73.84933105 98.18263428 73.84933105 98.18263428 74.71582031 99.38916016 C76.39842432 101.73539991 78.07517963 104.08569961 79.75 106.4375 C80.52077881 107.51185303 80.52077881 107.51185303 81.30712891 108.60791016 C81.77812012 109.27226074 82.24911133 109.93661133 82.734375 110.62109375 C83.14913086 111.2030249 83.56388672 111.78495605 83.99121094 112.38452148 C85 114 85 114 86 117 C86.66 117 87.32 117 88 117 C89.67034942 119.2192209 91.1908183 121.41823005 92.6875 123.75 C93.33041992 124.70132813 93.33041992 124.70132813 93.98632812 125.671875 C97.09212959 130.47311397 97.09212959 130.47311397 96.61254883 133.21582031 C96.41040771 133.80459961 96.2082666 134.39337891 96 135 C88.29604704 135.25400875 80.59317626 135.42885392 72.88598633 135.54931641 C70.26578424 135.59953978 67.6458615 135.66773478 65.02661133 135.75439453 C61.25532169 135.87602596 57.48773981 135.93247506 53.71484375 135.9765625 C52.54791489 136.02817535 51.38098602 136.07978821 50.17869568 136.13296509 C42.19167532 136.13844629 42.19167532 136.13844629 38.74606323 132.84674072 C36.94569691 130.30178693 35.44703473 127.75817338 34 125 C33.16279543 123.66961386 32.31638023 122.34488205 31.453125 121.03125 C30.33486662 119.24671223 29.22418482 117.45801683 28.12109375 115.6640625 C26.25528578 112.69723003 24.96410956 110.97607304 22 109 C20.04432806 108.61929078 20.04432806 108.61929078 17.88671875 108.55078125 C17.06155762 108.50574463 16.23639648 108.46070801 15.38623047 108.41430664 C11.59333368 108.27122378 7.80118066 108.15713057 4.00634766 108.08007812 C2.01545485 108.02704801 0.02510205 107.94538387 -1.96337891 107.83398438 C-12.9077386 106.88644614 -12.9077386 106.88644614 -22.95477295 110.3321228 C-26.28686853 113.54789402 -28.68066667 117.22060536 -30.94906616 121.23332214 C-32.58618571 123.98541056 -34.58206802 126.34950863 -36.625 128.8125 C-37.57246094 129.99779297 -37.57246094 129.99779297 -38.5390625 131.20703125 C-40.7839415 133.96211003 -41.51298876 134.18917912 -45.0625 134.5625 C-60.30726194 135.91330169 -75.74905297 134.71823097 -91 134 C-91 129.21294295 -89.37870935 127.44852701 -86.5 123.9375 C-85.57166532 122.77052561 -84.64459824 121.6025418 -83.71875 120.43359375 C-83.25597656 119.85335449 -82.79320312 119.27311523 -82.31640625 118.67529297 C-80.4752482 116.33218715 -78.7355834 113.92199241 -77 111.5 C-73.84001057 107.12366544 -70.59253471 102.8259276 -67.28662109 98.55883789 C-64.48338951 94.93768868 -61.70695136 91.29753665 -58.9453125 87.64453125 C-58.23310547 86.70399902 -57.52089844 85.7634668 -56.78710938 84.79443359 C-55.36676826 82.9176459 -53.94872571 81.03911602 -52.53320312 79.15869141 C-51.54610352 77.85617432 -51.54610352 77.85617432 -50.5390625 76.52734375 C-49.95334473 75.75124756 -49.36762695 74.97515137 -48.76416016 74.17553711 C-48.1819873 73.45760986 -47.59981445 72.73968262 -47 72 C-46.46004395 71.25468018 -45.92008789 70.50936035 -45.36376953 69.74145508 C-41.67396897 67.02307588 -38.10277361 67.50423483 -33.640625 67.609375 C-32.73624695 67.61503479 -31.8318689 67.62069458 -30.90008545 67.62652588 C-28.01618147 67.64888752 -25.13352739 67.69908314 -22.25 67.75 C-20.29298671 67.77006529 -18.33595392 67.78831601 -16.37890625 67.8046875 C-11.58545711 67.84875161 -6.79294035 67.91777748 -2 68 C-2.34989487 67.503862 -2.69978973 67.007724 -3.06028748 66.49655151 C-5.09085898 63.61672891 -7.12120728 60.7368008 -9.14477539 57.85205078 C-11.7316183 54.1703736 -14.34251644 50.51736175 -17.05859375 46.9296875 C-17.75686279 45.99503662 -17.75686279 45.99503662 -18.46923828 45.04150391 C-19.3472963 43.87044071 -20.23720493 42.70814586 -21.14013672 41.55615234 C-22.96661422 39.0996486 -24.00326455 37.53701834 -23.984375 34.4296875 C-22.81160061 31.53498247 -21.33279341 29.36002266 -19.4375 26.875 C-18.715625 25.91464844 -17.99375 24.95429687 -17.25 23.96484375 C-16.5075 22.98644531 -15.765 22.00804688 -15 21 C-13.6409909 19.14937966 -12.28669937 17.29528429 -10.9375 15.4375 C-10.28652344 14.54289062 -9.63554687 13.64828125 -8.96484375 12.7265625 C-5.93079156 8.5162873 -2.95920379 4.26310296 0 0 Z " fill="#0E5385" transform="translate(213,84)"/>
<path d="M0 0 C4.25972991 1.41990997 5.69555741 4.58671241 8.0625 8.1875 C9.03746431 9.64690228 10.01406236 11.10521429 10.9921875 12.5625 C11.7361377 13.67238281 11.7361377 13.67238281 12.49511719 14.8046875 C13.93539183 16.90575005 15.42291716 18.95788686 16.9453125 21 C17.40671631 21.62237549 17.86812012 22.24475098 18.34350586 22.88598633 C19.22074633 24.06185507 20.10664013 25.2313314 21.00219727 26.39331055 C22.72750884 28.72598247 23.92739446 30.65672526 24.53125 33.51171875 C23.78851721 36.99054809 21.9429873 39.36690548 19.8125 42.125 C18.88586194 43.37079292 17.96149988 44.61828103 17.0390625 45.8671875 C16.54438477 46.53331055 16.04970703 47.19943359 15.54003906 47.88574219 C12.82804384 51.60893157 10.2678809 55.43501684 7.6875 59.25 C3.44697777 65.48694067 -0.87399073 71.65243961 -5.3125 77.75 C-15.99584508 92.43491523 -26.25638505 107.41837718 -36.48388672 122.42285156 C-40.03538924 127.62195834 -43.659029 132.76254028 -47.33789062 137.87207031 C-50.4089346 142.14622925 -53.4017335 146.46988262 -56.375 150.8125 C-57.29164667 152.14324294 -58.20831359 153.47397194 -59.125 154.8046875 C-61.16809233 157.77452877 -63.18179868 160.76261567 -65.1875 163.7578125 C-66.24952409 165.31803238 -67.31201284 166.8779361 -68.375 168.4375 C-69.10662354 169.54798706 -69.10662354 169.54798706 -69.85302734 170.6809082 C-70.55613037 171.70317505 -70.55613037 171.70317505 -71.2734375 172.74609375 C-71.67997559 173.35122803 -72.08651367 173.9563623 -72.50537109 174.57983398 C-76.46017129 178.33760476 -83.70323627 177.17916931 -88.82421875 177.203125 C-89.7668306 177.20882507 -90.70944244 177.21452515 -91.68061829 177.22039795 C-93.66670619 177.22981971 -95.65280952 177.23637067 -97.63891602 177.24023438 C-100.68728314 177.24999931 -103.73499237 177.28107262 -106.78320312 177.3125 C-108.71353767 177.31902475 -110.64387702 177.32427729 -112.57421875 177.328125 C-113.48878342 177.3404718 -114.40334808 177.3528186 -115.34562683 177.36553955 C-116.19022964 177.36253845 -117.03483246 177.35953735 -117.9050293 177.35644531 C-118.64939743 177.36009094 -119.39376556 177.36373657 -120.16069031 177.36749268 C-120.76766251 177.24622009 -121.3746347 177.12494751 -122 177 C-122.66 176.01 -123.32 175.02 -124 174 C-119.08695836 166.88948883 -114.03868689 159.88071363 -108.97192383 152.87939453 C-105.22908248 147.70620539 -101.50568408 142.51991387 -97.80273438 137.31811523 C-95.53350075 134.13438045 -93.24951309 130.96216366 -90.94921875 127.80078125 C-85.31025014 120.04527995 -79.76094291 112.24634656 -74.375 104.3125 C-69.14656296 96.61168304 -63.73695465 89.07100497 -58.1875 81.59912109 C-51.47837444 72.56442282 -45.0286657 63.35413113 -38.5859375 54.12890625 C-34.38958422 48.12176704 -30.16411725 42.13544234 -25.93359375 36.15234375 C-23.94181912 33.33537683 -21.9553281 30.51478701 -19.97265625 27.69140625 C-13.42638558 18.37709427 -6.76880864 9.15388098 0 0 Z " fill="#1970A4" transform="translate(184,42)"/>
<path d="M0 0 C14.56488968 -1.34417237 14.56488968 -1.34417237 19.54638672 2.18017578 C23.53064163 6.2891699 26.24434965 11.11452035 28.97021484 16.11083984 C31.45523841 20.44838016 34.46984088 24.38351202 37.453125 28.38671875 C38.49747553 29.82618163 39.53927149 31.26750243 40.578125 32.7109375 C41.30189331 33.71096802 41.30189331 33.71096802 42.0402832 34.73120117 C42.98756782 36.05072101 43.92614838 37.37653029 44.85620117 38.70825195 C47.14865981 41.98481919 49.18309253 44.39808479 52.453125 46.69921875 C52.453125 47.35921875 52.453125 48.01921875 52.453125 48.69921875 C53.113125 48.69921875 53.773125 48.69921875 54.453125 48.69921875 C56.12347442 50.91843965 57.6439433 53.1174488 59.140625 55.44921875 C59.56923828 56.0834375 59.99785156 56.71765625 60.43945312 57.37109375 C63.54525459 62.17233272 63.54525459 62.17233272 63.06567383 64.91503906 C62.86353271 65.50381836 62.6613916 66.09259766 62.453125 66.69921875 C54.74917204 66.9532275 47.04630126 67.12807267 39.33911133 67.24853516 C36.71890924 67.29875853 34.0989865 67.36695353 31.47973633 67.45361328 C27.70844669 67.57524471 23.94086481 67.63169381 20.16796875 67.67578125 C19.00103989 67.7273941 17.83411102 67.77900696 16.63182068 67.83218384 C8.64480032 67.83766504 8.64480032 67.83766504 5.19918823 64.54595947 C3.39882191 62.00100568 1.90015973 59.45739213 0.453125 56.69921875 C-0.38407957 55.36883261 -1.23049477 54.0441008 -2.09375 52.73046875 C-3.21200838 50.94593098 -4.32269018 49.15723558 -5.42578125 47.36328125 C-7.29158922 44.39644878 -8.58276544 42.67529179 -11.546875 40.69921875 C-13.50254694 40.31850953 -13.50254694 40.31850953 -15.66015625 40.25 C-16.89789795 40.18244507 -16.89789795 40.18244507 -18.16064453 40.11352539 C-21.95354132 39.97044253 -25.74569434 39.85634932 -29.54052734 39.77929688 C-31.53142015 39.72626676 -33.52177295 39.64460262 -35.51025391 39.53320312 C-46.4546136 38.58566489 -46.4546136 38.58566489 -56.50164795 42.03134155 C-59.83374353 45.24711277 -62.22754167 48.91982411 -64.49594116 52.93254089 C-66.13306071 55.68462931 -68.12894302 58.04872738 -70.171875 60.51171875 C-71.11933594 61.69701172 -71.11933594 61.69701172 -72.0859375 62.90625 C-74.3308165 65.66132878 -75.05986376 65.88839787 -78.609375 66.26171875 C-93.85413694 67.61252044 -109.29592797 66.41744972 -124.546875 65.69921875 C-124.546875 60.71327828 -122.54242963 58.63294133 -119.546875 54.94921875 C-119.06992188 54.34722656 -118.59296875 53.74523437 -118.1015625 53.125 C-116.92526961 51.64287096 -115.73719107 50.17010932 -114.546875 48.69921875 C-114.546875 51.82333435 -115.08191005 53.42524288 -116.296875 56.26171875 C-116.62171875 57.04675781 -116.9465625 57.83179688 -117.28125 58.640625 C-118.76808552 61.05902722 -119.99848229 61.57523253 -122.546875 62.69921875 C-122.876875 63.35921875 -123.206875 64.01921875 -123.546875 64.69921875 C-107.706875 64.69921875 -91.866875 64.69921875 -75.546875 64.69921875 C-74.886875 63.37921875 -74.226875 62.05921875 -73.546875 60.69921875 C-72.31174156 59.04692103 -71.03729993 57.42360269 -69.734375 55.82421875 C-69.02539062 54.94507813 -68.31640625 54.0659375 -67.5859375 53.16015625 C-65.96864495 51.20825144 -64.30898735 49.32773766 -62.609375 47.44921875 C-60.03278567 44.45330526 -60.03278567 44.45330526 -59.546875 38.69921875 C-76.871875 38.20421875 -76.871875 38.20421875 -94.546875 37.69921875 C-94.876875 38.35921875 -95.206875 39.01921875 -95.546875 39.69921875 C-95.876875 38.70921875 -96.206875 37.71921875 -96.546875 36.69921875 C-97.536875 36.69921875 -98.526875 36.69921875 -99.546875 36.69921875 C-98.94503751 34.67876433 -98.27381404 32.67810836 -97.546875 30.69921875 C-96.886875 30.36921875 -96.226875 30.03921875 -95.546875 29.69921875 C-95.216875 31.01921875 -94.886875 32.33921875 -94.546875 33.69921875 C-93.886875 33.69921875 -93.226875 33.69921875 -92.546875 33.69921875 C-92.546875 34.68921875 -92.546875 35.67921875 -92.546875 36.69921875 C-91.72468475 36.62562637 -90.90249451 36.552034 -90.0553894 36.47621155 C-80.77945082 35.72061852 -71.60387814 35.64181126 -62.3046875 35.8203125 C-60.80012858 35.84469483 -59.29556076 35.86853387 -57.79098511 35.89186096 C-53.8816697 35.95389692 -49.97251716 36.02317937 -46.06335449 36.09411621 C-42.05402882 36.16553955 -38.04459009 36.22990941 -34.03515625 36.29492188 C-26.20560391 36.42289225 -18.37621042 36.55853951 -10.546875 36.69921875 C-10.546875 35.70921875 -10.546875 34.71921875 -10.546875 33.69921875 C-12.031875 33.20421875 -12.031875 33.20421875 -13.546875 32.69921875 C-14.7578125 30.87890625 -14.7578125 30.87890625 -15.921875 28.57421875 C-17.47701779 25.62224111 -19.05091679 22.87304955 -21.046875 20.19921875 C-24.7242762 15.20679749 -28.27336212 9.8314601 -29.546875 3.69921875 C-30.206875 3.69921875 -30.866875 3.69921875 -31.546875 3.69921875 C-31.546875 3.03921875 -31.546875 2.37921875 -31.546875 1.69921875 C-25.58404011 1.41324606 -19.62334753 1.17036587 -13.65625 0.9921875 C-9.06775537 0.84370672 -4.56132087 0.51304474 0 0 Z " fill="#123359" transform="translate(246.546875,152.30078125)"/>
<path d="M0 0 C1.71875 0.125 1.71875 0.125 4 1 C5.6589578 2.97151507 7.07511669 4.86961722 8.5 7 C9.38272692 8.27740289 10.26554341 9.55474389 11.1484375 10.83203125 C11.84211426 11.84837646 11.84211426 11.84837646 12.54980469 12.88525391 C15.03720084 16.51249726 17.58478223 20.09715427 20.125 23.6875 C20.89360352 24.77804688 20.89360352 24.77804688 21.67773438 25.890625 C25.03961923 30.65870365 28.45263329 35.38590228 31.8984375 40.09375 C33.99687994 42.99568527 36.05969506 45.92014573 38.11694336 48.85131836 C43.54685864 56.58787079 49.08626442 64.23296975 54.70849609 71.83081055 C64.28633884 84.78029676 73.65635016 97.88092506 83 111 C82.67 111.66 82.34 112.32 82 113 C76.77966368 106.43628142 71.77510222 99.77817723 67.05615234 92.84423828 C65.93245046 91.19377055 64.7985663 89.55019095 63.65478516 87.91357422 C61.2647673 84.47387223 58.97745229 81.15829516 57.23828125 77.33984375 C55.4397564 73.82886954 54.26223675 72.24727569 51 70 C47.5956079 69.42125757 44.25082372 69.56906024 40.80859375 69.6875 C39.24529831 69.71545403 39.24529831 69.71545403 37.65042114 69.74397278 C35.34496554 69.78779521 33.03968378 69.84155895 30.73464966 69.90371704 C26.83691355 70.00420453 22.93932677 70.06803735 19.04077148 70.1237793 C12.66518414 70.21929551 6.29147828 70.35658348 -0.08263493 70.52331829 C-3.75320715 70.61894508 -7.42344571 70.70476934 -11.09472656 70.76831055 C-14.72169923 70.8312702 -18.34739273 70.91785106 -21.97343063 71.02124977 C-23.99045569 71.07297233 -26.00804272 71.10107143 -28.02554321 71.12858582 C-35.39322392 71.16452271 -35.39322392 71.16452271 -41.68115234 74.49536133 C-42.44637207 75.32189209 -43.2115918 76.14842285 -44 77 C-45.5159375 77.495 -45.5159375 77.495 -47.0625 78 C-50.6980299 79.2376272 -52.46849244 81.17066802 -55 84 C-53.53809273 80.80707814 -51.73158625 78.19433866 -49.5625 75.4375 C-48.96566406 74.67308594 -48.36882812 73.90867187 -47.75390625 73.12109375 C-43.61502983 68.1157265 -43.61502983 68.1157265 -41.0827179 67.63923645 C-40.36101913 67.64589828 -39.63932037 67.65256012 -38.89575195 67.65942383 C-37.6648156 67.65976372 -37.6648156 67.65976372 -36.40901184 67.66011047 C-35.52767075 67.67559433 -34.64632965 67.69107819 -33.73828125 67.70703125 C-32.37959175 67.71339851 -32.37959175 67.71339851 -30.99345398 67.71989441 C-28.09950067 67.73669152 -25.20624294 67.7743455 -22.3125 67.8125 C-20.35092151 67.82754551 -18.38933211 67.84123415 -16.42773438 67.85351562 C-11.61822144 67.88659843 -6.80922867 67.93838778 -2 68 C-2.34989487 67.503862 -2.69978973 67.007724 -3.06028748 66.49655151 C-5.09085898 63.61672891 -7.12120728 60.7368008 -9.14477539 57.85205078 C-11.7316183 54.1703736 -14.34251644 50.51736175 -17.05859375 46.9296875 C-17.52410645 46.30658691 -17.98961914 45.68348633 -18.46923828 45.04150391 C-19.3472963 43.87044071 -20.23720493 42.70814586 -21.14013672 41.55615234 C-22.96661422 39.0996486 -24.00326455 37.53701834 -23.984375 34.4296875 C-22.81160061 31.53498247 -21.33279341 29.36002266 -19.4375 26.875 C-18.715625 25.91464844 -17.99375 24.95429687 -17.25 23.96484375 C-16.5075 22.98644531 -15.765 22.00804688 -15 21 C-13.6409909 19.14937966 -12.28669937 17.29528429 -10.9375 15.4375 C-10.28652344 14.54289062 -9.63554687 13.64828125 -8.96484375 12.7265625 C-5.93079156 8.5162873 -2.95920379 4.26310296 0 0 Z " fill="#2E5289" transform="translate(213,84)"/>
<path d="M0 0 C16.17 0 32.34 0 49 0 C49 0.66 49 1.32 49 2 C49.60593994 2.09659912 50.21187988 2.19319824 50.83618164 2.29272461 C53.48265676 3.15776336 54.09771866 4.02367411 55.62109375 6.31640625 C56.31235352 7.34024414 56.31235352 7.34024414 57.01757812 8.38476562 C57.48615234 9.10341797 57.95472656 9.82207031 58.4375 10.5625 C58.90220703 11.25408203 59.36691406 11.94566406 59.84570312 12.65820312 C62.9982389 17.37601469 66.00058686 22.18399884 69 27 C61.31485918 27.33049472 53.63155534 27.5576018 45.94091797 27.71411133 C43.32726589 27.77936358 40.71408622 27.86799258 38.10205078 27.98071289 C16.95613682 28.87017749 16.95613682 28.87017749 12.07278442 25.78076172 C8.78682434 22.37824036 7.5120998 18.4403838 6 14 C4.70240248 11.92192137 3.35500993 9.87320813 1.9375 7.875 C0.15234375 5.2421875 0.15234375 5.2421875 -1 3 C-0.67 2.01 -0.34 1.02 0 0 Z " fill="#081A36" transform="translate(240,190)"/>
<path d="M0 0 C15 0 30 0 45 0 C44.02283597 7.69898599 44.02283597 7.69898599 41.4375 10.3125 C38.73525373 13.19794941 36.21474056 16.15672815 33.75 19.25 C33.08484375 20.08015625 32.4196875 20.9103125 31.734375 21.765625 C30.42014614 23.45873065 29.18889791 25.21665314 28 27 C25.93722534 27.36076355 25.93722534 27.36076355 23.36669922 27.34057617 C22.40585419 27.34034958 21.44500916 27.34012299 20.45504761 27.33988953 C19.41542877 27.32440567 18.37580994 27.30892181 17.3046875 27.29296875 C16.24210724 27.28872391 15.17952698 27.28447906 14.08474731 27.28010559 C10.68124354 27.26327389 7.27832567 27.22561303 3.875 27.1875 C1.57162312 27.17245899 -0.73176302 27.15876958 -3.03515625 27.14648438 C-8.69030505 27.11335574 -14.34511068 27.06311197 -20 27 C-19.1875 25.0625 -19.1875 25.0625 -18 23 C-17.01 22.67 -16.02 22.34 -15 22 C-14.03993963 20.27328691 -14.03993963 20.27328691 -13.3125 18.125 C-10.84252682 12.17983199 -7.33689843 6.76435454 -3 2 C-2.01 2 -1.02 2 0 2 C0 1.34 0 0.68 0 0 Z " fill="#0B305E" transform="translate(143,190)"/>
<path d="M0 0 C4.25972991 1.41990997 5.69555741 4.58671241 8.0625 8.1875 C9.03746431 9.64690228 10.01406236 11.10521429 10.9921875 12.5625 C11.7361377 13.67238281 11.7361377 13.67238281 12.49511719 14.8046875 C13.93539183 16.90575005 15.42291716 18.95788686 16.9453125 21 C17.40671631 21.62237549 17.86812012 22.24475098 18.34350586 22.88598633 C19.22074633 24.06185507 20.10664013 25.2313314 21.00219727 26.39331055 C22.72750884 28.72598247 23.92739446 30.65672526 24.53125 33.51171875 C23.78851721 36.99054809 21.9429873 39.36690548 19.8125 42.125 C18.88586194 43.37079292 17.96149988 44.61828103 17.0390625 45.8671875 C16.54438477 46.53331055 16.04970703 47.19943359 15.54003906 47.88574219 C12.82804384 51.60893157 10.2678809 55.43501684 7.6875 59.25 C3.44697777 65.48694067 -0.87399073 71.65243961 -5.3125 77.75 C-15.99584508 92.43491523 -26.25638505 107.41837718 -36.48388672 122.42285156 C-40.03538924 127.62195834 -43.659029 132.76254028 -47.33789062 137.87207031 C-50.4089346 142.14622925 -53.4017335 146.46988262 -56.375 150.8125 C-57.29164667 152.14324294 -58.20831359 153.47397194 -59.125 154.8046875 C-61.16809233 157.77452877 -63.18179868 160.76261567 -65.1875 163.7578125 C-66.24952409 165.31803238 -67.31201284 166.8779361 -68.375 168.4375 C-69.10662354 169.54798706 -69.10662354 169.54798706 -69.85302734 170.6809082 C-70.55613037 171.70317505 -70.55613037 171.70317505 -71.2734375 172.74609375 C-71.67997559 173.35122803 -72.08651367 173.9563623 -72.50537109 174.57983398 C-76.46017129 178.33760476 -83.70323627 177.17916931 -88.82421875 177.203125 C-89.7668306 177.20882507 -90.70944244 177.21452515 -91.68061829 177.22039795 C-93.66670619 177.22981971 -95.65280952 177.23637067 -97.63891602 177.24023438 C-100.68728314 177.24999931 -103.73499237 177.28107262 -106.78320312 177.3125 C-108.71353767 177.31902475 -110.64387702 177.32427729 -112.57421875 177.328125 C-113.48878342 177.3404718 -114.40334808 177.3528186 -115.34562683 177.36553955 C-116.19022964 177.36253845 -117.03483246 177.35953735 -117.9050293 177.35644531 C-118.64939743 177.36009094 -119.39376556 177.36373657 -120.16069031 177.36749268 C-120.76766251 177.24622009 -121.3746347 177.12494751 -122 177 C-122.66 176.01 -123.32 175.02 -124 174 C-122.02 171.36 -120.04 168.72 -118 166 C-118 169 -118 169 -122 175 C-106.49 175 -90.98 175 -75 175 C-74.34 173.35 -73.68 171.7 -73 170 C-71.39662253 167.67835467 -69.76863219 165.43023352 -68.0625 163.1875 C-64.05395132 157.8228254 -60.15195966 152.405357 -56.375 146.875 C-55.68664062 145.86783936 -55.68664062 145.86783936 -54.984375 144.84033203 C-54.08100725 143.51712991 -53.17816223 142.19357073 -52.27587891 140.86962891 C-46.46483036 132.35431897 -40.53826134 123.92221815 -34.58227539 115.50805664 C-30.72577916 110.05063553 -26.93025884 104.55385559 -23.15820312 99.0378418 C-19.21967595 93.28989386 -15.20100106 87.60027625 -11.14648438 81.93359375 C-6.31766226 75.14534587 -2.1080483 69.10787809 0 61 C0.99 60.01 0.99 60.01 2 59 C2.70710678 57.35008418 3.37943989 55.68437744 4 54 C4.99 54 5.98 54 7 54 C7.37125 52.700625 7.37125 52.700625 7.75 51.375 C9.06960322 47.81207132 10.88484821 45.13861233 13 42 C13.76939681 39.77397385 13.76939681 39.77397385 14 38 C14.66 38 15.32 38 16 38 C16.66 35.36 17.32 32.72 18 30 C17.01 29.67 16.02 29.34 15 29 C15.66 29 16.32 29 17 29 C14.88673474 24.29157376 14.88673474 24.29157376 11 21 C11 20.34 11 19.68 11 19 C10.34 19 9.68 19 9 19 C8.67 19.99 8.34 20.98 8 22 C7.34 22 6.68 22 6 22 C6 21.34 6 20.68 6 20 C6.66 20 7.32 20 8 20 C8 18.35 8 16.7 8 15 C7.4225 14.855625 6.845 14.71125 6.25 14.5625 C5.5075 14.376875 4.765 14.19125 4 14 C2.9171875 13.7834375 2.9171875 13.7834375 1.8125 13.5625 C1.214375 13.376875 0.61625 13.19125 0 13 C-0.495 12.01 -0.495 12.01 -1 11 C-1.66 12.32 -2.32 13.64 -3 15 C-3.99 15 -4.98 15 -6 15 C-9.30386425 19.06629447 -9.57219593 22.95191192 -10 28 C-11.98 28.66 -13.96 29.32 -16 30 C-16 31.65 -16 33.3 -16 35 C-16.99 35 -17.98 35 -19 35 C-19.33 35.99 -19.66 36.98 -20 38 C-21.485 38.495 -21.485 38.495 -23 39 C-24.2365974 40.75404955 -24.2365974 40.75404955 -25.1875 42.875 C-25.70376953 43.92300781 -25.70376953 43.92300781 -26.23046875 44.9921875 C-27.17894161 47.1085115 -27.17894161 47.1085115 -27 50 C-28.375 52.1875 -28.375 52.1875 -30 54 C-30.66 54 -31.32 54 -32 54 C-33.70993434 55.6222454 -35.37347684 57.29413425 -37 59 C-37.7734375 59.680625 -37.7734375 59.680625 -38.5625 60.375 C-40.85804535 62.96996431 -42.33958757 65.96545314 -44 69 C-44.66 69 -45.32 69 -46 69 C-45.9175 69.763125 -45.835 70.52625 -45.75 71.3125 C-46 74 -46 74 -47.75 75.6875 C-50 77 -50 77 -51.9375 77.75 C-55.1956254 79.72462146 -56.94504916 82.8501983 -59 86 C-59 82.04265483 -57.15107806 80.10550798 -54.875 77.0625 C-53.95195564 75.80033351 -53.03015232 74.53725879 -52.109375 73.2734375 C-51.60857422 72.58862305 -51.10777344 71.90380859 -50.59179688 71.19824219 C-47.7186407 67.2304664 -44.92643034 63.2060716 -42.125 59.1875 C-36.74951446 51.49369088 -31.35233056 43.81574113 -25.93359375 36.15234375 C-23.94181912 33.33537683 -21.9553281 30.51478701 -19.97265625 27.69140625 C-13.42638558 18.37709427 -6.76880864 9.15388098 0 0 Z " fill="#4BB8E3" transform="translate(184,42)"/>
<path d="M0 0 C1.37261742 -0.05314362 1.37261742 -0.05314362 2.77296448 -0.10736084 C6.9867835 -0.23129232 11.20046895 -0.32200821 15.41552734 -0.39160156 C17.63418961 -0.43822504 19.85251101 -0.50635743 22.06982422 -0.59667969 C40.28957483 -1.32628644 40.28957483 -1.32628644 45.69848633 2.29785156 C47.69506836 4.95996094 47.69506836 4.95996094 50.69897461 11.28808594 C53.33897461 15.90808594 55.97897461 20.52808594 58.69897461 25.28808594 C76.51897461 25.28808594 94.33897461 25.28808594 112.69897461 25.28808594 C108.73897461 19.67808594 104.77897461 14.06808594 100.69897461 8.28808594 C101.02897461 7.62808594 101.35897461 6.96808594 101.69897461 6.28808594 C102.68897461 8.26808594 102.68897461 8.26808594 103.69897461 10.28808594 C104.35897461 10.28808594 105.01897461 10.28808594 105.69897461 10.28808594 C107.36932403 12.50730684 108.88979291 14.70631599 110.38647461 17.03808594 C111.02939453 17.98941406 111.02939453 17.98941406 111.68530273 18.95996094 C114.7911042 23.76119991 114.7911042 23.76119991 114.31152344 26.50390625 C114.10938232 27.09268555 113.90724121 27.68146484 113.69897461 28.28808594 C105.99502165 28.54209469 98.29215087 28.71693986 90.58496094 28.83740234 C87.96475885 28.88762572 85.34483611 28.95582072 82.72558594 29.04248047 C78.9542963 29.16411189 75.18671442 29.220561 71.41381836 29.26464844 C70.2468895 29.31626129 69.07996063 29.36787415 67.87767029 29.42105103 C59.89064993 29.42653222 59.89064993 29.42653222 56.44503784 26.13482666 C54.64467152 23.58987287 53.14600934 21.04625932 51.69897461 18.28808594 C50.86177004 16.9576998 50.01535484 15.63296799 49.15209961 14.31933594 C48.03384123 12.53479817 46.92315943 10.74610277 45.82006836 8.95214844 C43.95426038 5.98531597 42.66308417 4.26415898 39.69897461 2.28808594 C37.74330267 1.90737672 37.74330267 1.90737672 35.58569336 1.83886719 C34.34795166 1.77131226 34.34795166 1.77131226 33.08520508 1.70239258 C29.29230829 1.55930972 25.50015527 1.44521651 21.70532227 1.36816406 C19.71442946 1.31513395 17.72407666 1.23346981 15.7355957 1.12207031 C4.79123601 0.17453208 4.79123601 0.17453208 -5.25579834 3.62020874 C-8.58789392 6.83597996 -10.98169206 10.50869129 -13.25009155 14.52140808 C-14.8872111 17.2734965 -16.88309341 19.63759457 -18.92602539 22.10058594 C-19.55766602 22.89078125 -20.18930664 23.68097656 -20.84008789 24.49511719 C-23.08496689 27.25019596 -23.81401415 27.47726506 -27.36352539 27.85058594 C-42.60828733 29.20138763 -58.05007836 28.00631691 -73.30102539 27.28808594 C-73.30102539 22.30214547 -71.29658002 20.22180852 -68.30102539 16.53808594 C-67.82407227 15.93609375 -67.34711914 15.33410156 -66.85571289 14.71386719 C-65.67942 13.23173815 -64.49134146 11.75897651 -63.30102539 10.28808594 C-63.30102539 13.41220154 -63.83606044 15.01411007 -65.05102539 17.85058594 C-65.37586914 18.635625 -65.70071289 19.42066406 -66.03540039 20.22949219 C-67.52223591 22.6478944 -68.75263268 23.16409972 -71.30102539 24.28808594 C-71.63102539 24.94808594 -71.96102539 25.60808594 -72.30102539 26.28808594 C-56.46102539 26.28808594 -40.62102539 26.28808594 -24.30102539 26.28808594 C-23.64102539 24.96808594 -22.98102539 23.64808594 -22.30102539 22.28808594 C-21.14994233 20.73950657 -19.95796108 19.22093435 -18.73852539 17.72558594 C-18.03469727 16.85933594 -17.33086914 15.99308594 -16.60571289 15.10058594 C-15.84516602 14.17246094 -15.08461914 13.24433594 -14.30102539 12.28808594 C-13.47860352 11.27746094 -12.65618164 10.26683594 -11.80883789 9.22558594 C-4.42718195 0.16949686 -4.42718195 0.16949686 0 0 Z " fill="#CEDAE7" transform="translate(195.301025390625,190.7119140625)"/>
<path d="M0 0 C3.87511826 3.26963103 3.87511826 3.26963103 4.38671875 6.26171875 C3.86482062 9.95717926 2.03359463 12.24960669 -0.1875 15.125 C-1.11413806 16.37079292 -2.03850012 17.61828103 -2.9609375 18.8671875 C-3.45561523 19.53331055 -3.95029297 20.19943359 -4.45996094 20.88574219 C-7.17195616 24.60893157 -9.7321191 28.43501684 -12.3125 32.25 C-16.55302223 38.48694067 -20.87399073 44.65243961 -25.3125 50.75 C-35.99584508 65.43491523 -46.25638505 80.41837718 -56.48388672 95.42285156 C-60.03538924 100.62195834 -63.659029 105.76254028 -67.33789062 110.87207031 C-70.4089346 115.14622925 -73.4017335 119.46988262 -76.375 123.8125 C-77.29164667 125.14324294 -78.20831359 126.47397194 -79.125 127.8046875 C-81.16809233 130.77452877 -83.18179868 133.76261567 -85.1875 136.7578125 C-86.24952409 138.31803238 -87.31201284 139.8779361 -88.375 141.4375 C-89.10662354 142.54798706 -89.10662354 142.54798706 -89.85302734 143.6809082 C-90.55613037 144.70317505 -90.55613037 144.70317505 -91.2734375 145.74609375 C-91.67997559 146.35122803 -92.08651367 146.9563623 -92.50537109 147.57983398 C-96.46017129 151.33760476 -103.70323627 150.17916931 -108.82421875 150.203125 C-109.7668306 150.20882507 -110.70944244 150.21452515 -111.68061829 150.22039795 C-113.66670619 150.22981971 -115.65280952 150.23637067 -117.63891602 150.24023438 C-120.68728314 150.24999931 -123.73499237 150.28107262 -126.78320312 150.3125 C-128.71353767 150.31902475 -130.64387702 150.32427729 -132.57421875 150.328125 C-133.48878342 150.3404718 -134.40334808 150.3528186 -135.34562683 150.36553955 C-136.19022964 150.36253845 -137.03483246 150.35953735 -137.9050293 150.35644531 C-138.64939743 150.36009094 -139.39376556 150.36373657 -140.16069031 150.36749268 C-140.76766251 150.24622009 -141.3746347 150.12494751 -142 150 C-142.66 149.01 -143.32 148.02 -144 147 C-142.02 144.36 -140.04 141.72 -138 139 C-138 142 -138 142 -142 148 C-126.49 148 -110.98 148 -95 148 C-94.34 146.35 -93.68 144.7 -93 143 C-91.39662253 140.67835467 -89.76863219 138.43023352 -88.0625 136.1875 C-84.05395132 130.8228254 -80.15195966 125.405357 -76.375 119.875 C-75.91609375 119.20355957 -75.4571875 118.53211914 -74.984375 117.84033203 C-74.08100725 116.51712991 -73.17816223 115.19357073 -72.27587891 113.86962891 C-66.46483036 105.35431897 -60.53826134 96.92221815 -54.58227539 88.50805664 C-51.18312558 83.69783752 -47.82688625 78.86042926 -44.5 74 C-40.16998962 67.67405209 -35.76991414 61.40073752 -31.33984375 55.14453125 C-27.64110821 49.91826597 -23.99066293 44.66132548 -20.35546875 39.390625 C-18.06139131 36.07662525 -15.73408194 32.78656054 -13.40332031 29.49829102 C-11.8470881 27.29888303 -10.30031523 25.09303942 -8.75390625 22.88671875 C-7.17609379 20.64089599 -5.57531788 18.44720148 -3.90234375 16.26953125 C0.15009968 10.8566931 0.75630215 6.70868015 0 0 Z " fill="#D8E2EE" transform="translate(204,69)"/>
<path d="M0 0 C0.99 0.495 0.99 0.495 2 1 C-3.38673849 9.23066876 -8.97860253 17.30600535 -14.63525391 25.35253906 C-15.47902588 26.55281738 -15.47902588 26.55281738 -16.33984375 27.77734375 C-16.94304443 28.59291748 -17.54624512 29.40849121 -18.16772461 30.2487793 C-20.12585149 33.0323074 -20.12585149 33.0323074 -21.59985352 36.49536133 C-23.46952798 40.34535076 -25.32224466 43.64943166 -29 46 C-36.74850324 48.15630766 -45.1279218 47.21658932 -53.0625 46.8125 C-55.28563864 46.74723265 -57.50896081 46.68792717 -59.73242188 46.63476562 C-65.15897531 46.49207645 -70.57863326 46.27513075 -76 46 C-74.5053433 42.9388821 -72.84641933 40.22041054 -70.875 37.4375 C-70.25753906 36.56480469 -69.64007813 35.69210938 -69.00390625 34.79296875 C-66.29089589 31.0116775 -63.54596338 27.25406153 -60.80078125 23.49609375 C-58.78990763 20.70878737 -56.87007673 17.88303495 -55 15 C-54.67 15.66 -54.34 16.32 -54 17 C-54.70703125 18.83984375 -54.70703125 18.83984375 -55.8125 20.9375 C-56.16957031 21.62714844 -56.52664062 22.31679687 -56.89453125 23.02734375 C-57.84989011 24.73213606 -58.91598646 26.3739797 -60 28 C-60.433125 28.8971875 -60.433125 28.8971875 -60.875 29.8125 C-62 32 -62 32 -64.0625 34.9375 C-65.87979299 37.80999537 -66.60858637 39.67298419 -67 43 C-65.081875 43.2784375 -65.081875 43.2784375 -63.125 43.5625 C-62.04605469 43.71912109 -62.04605469 43.71912109 -60.9453125 43.87890625 C-58.91859333 44.1684297 -58.91859333 44.1684297 -57 43 C-55.2595583 42.91550372 -53.51590278 42.89276976 -51.7734375 42.90234375 C-50.7421875 42.90556641 -49.7109375 42.90878906 -48.6484375 42.91210938 C-47.02808594 42.92467773 -47.02808594 42.92467773 -45.375 42.9375 C-43.74304688 42.94426758 -43.74304688 42.94426758 -42.078125 42.95117188 C-39.38536211 42.96298224 -36.69270812 42.97945222 -34 43 C-33.67 41.68 -33.34 40.36 -33 39 C-32.071875 38.938125 -31.14375 38.87625 -30.1875 38.8125 C-26.86246846 38.31778176 -26.86246846 38.31778176 -25.25 35.6875 C-24.5148532 34.10693439 -23.78382731 32.52442009 -23.0625 30.9375 C-22 29 -22 29 -19.875 27.25 C-17.72482606 24.66979127 -17.80280242 24.1409598 -17.9375 20.9375 C-18 17 -18 17 -16.5 15 C-16.005 14.67 -15.51 14.34 -15 14 C-15 14.66 -15 15.32 -15 16 C-14.34 16 -13.68 16 -13 16 C-12.67 15.01 -12.34 14.02 -12 13 C-11.67 13 -11.34 13 -11 13 C-10.67 11.35 -10.34 9.7 -10 8 C-7.525 7.505 -7.525 7.505 -5 7 C-5 6.34 -5 5.68 -5 5 C-4.34 5 -3.68 5 -3 5 C-2.5359375 4.0409375 -2.5359375 4.0409375 -2.0625 3.0625 C-1 1 -1 1 0 0 Z " fill="#324F72" transform="translate(138,171)"/>
<path d="M0 0 C0.495 0.99 0.495 0.99 1 2 C0.59007812 2.53367188 0.18015625 3.06734375 -0.2421875 3.6171875 C-3.31499857 7.86619419 -5.29258718 11.20056821 -6.0625 16.4375 C-6.4453125 18.9921875 -6.4453125 18.9921875 -7 21 C-8.64551962 21.71727778 -10.31422289 22.38325228 -12 23 C-12.91329556 25.16451048 -13.48547943 27.35928842 -14.1171875 29.62109375 C-15.32965085 32.88830694 -17.29145421 34.93359858 -19.65625 37.4375 C-21.1965939 39.05214509 -21.1965939 39.05214509 -22.0625 41.75 C-23 44 -23 44 -25.5625 45.375 C-26.366875 45.91125 -27.17125 46.4475 -28 47 C-28.36760731 49.32817964 -28.70241581 51.6618385 -29 54 C-31.0625 55.4375 -31.0625 55.4375 -33 56 C-33.495 53.525 -33.495 53.525 -34 51 C-34.495 51.763125 -34.99 52.52625 -35.5 53.3125 C-37.60445101 56.46166061 -39.79193313 59.54771277 -42 62.625 C-42.66 63.54539063 -43.32 64.46578125 -44 65.4140625 C-45.85764307 67.81593694 -47.80236852 69.91028793 -50 72 C-48.47553112 67.41793161 -45.88337514 63.86889172 -43 60.0625 C-41.99662806 58.71671792 -40.99404002 57.37035108 -39.9921875 56.0234375 C-39.4878418 55.34764648 -38.98349609 54.67185547 -38.46386719 53.97558594 C-36.3130541 51.07292091 -34.21602989 48.1333858 -32.125 45.1875 C-29.41513499 41.37470094 -26.69368367 37.57140698 -23.94140625 33.7890625 C-17.49933104 24.9304777 -11.19573043 15.99598962 -5.04956055 6.92895508 C-4.2747937 5.78656372 -4.2747937 5.78656372 -3.484375 4.62109375 C-3.02772461 3.9448999 -2.57107422 3.26870605 -2.10058594 2.57202148 C-1 1 -1 1 0 0 Z " fill="#87A6BE" transform="translate(117,136)"/>
<path d="M0 0 C0.99 0.33 1.98 0.66 3 1 C2.34 1.99 1.68 2.98 1 4 C0.54860541 6.0492094 0.54860541 6.0492094 0.375 8.1875 C0.189375 10.0746875 0.189375 10.0746875 0 12 C-1.98 12.66 -3.96 13.32 -6 14 C-6 15.65 -6 17.3 -6 19 C-6.99 19 -7.98 19 -9 19 C-9.495 20.485 -9.495 20.485 -10 22 C-10.99 22.33 -11.98 22.66 -13 23 C-14.2365974 24.75404955 -14.2365974 24.75404955 -15.1875 26.875 C-15.53167969 27.57367188 -15.87585938 28.27234375 -16.23046875 28.9921875 C-17.17894161 31.1085115 -17.17894161 31.1085115 -17 34 C-18.375 36.1875 -18.375 36.1875 -20 38 C-20.66 38 -21.32 38 -22 38 C-23.70993434 39.6222454 -25.37347684 41.29413425 -27 43 C-27.7734375 43.680625 -27.7734375 43.680625 -28.5625 44.375 C-30.85804535 46.96996431 -32.33958757 49.96545314 -34 53 C-34.66 53 -35.32 53 -36 53 C-35.9175 53.763125 -35.835 54.52625 -35.75 55.3125 C-36 58 -36 58 -37.75 59.6875 C-40 61 -40 61 -41.9375 61.75 C-45.1956254 63.72462146 -46.94504916 66.8501983 -49 70 C-49 66.0428288 -47.15126526 64.10533361 -44.875 61.0625 C-43.95968762 59.8121119 -43.04570503 58.56074965 -42.1328125 57.30859375 C-41.63297852 56.62522949 -41.13314453 55.94186523 -40.61816406 55.23779297 C-37.00742192 50.24442204 -33.51555527 45.16597139 -29.99951172 40.10571289 C-20.13524407 25.95995138 -20.13524407 25.95995138 -14 20 C-13.67 19.34 -13.34 18.68 -13 18 C-12.01 18 -11.02 18 -10 18 C-9.72027344 17.41992188 -9.44054687 16.83984375 -9.15234375 16.2421875 C-8.05806254 14.11297593 -6.85875804 12.13601714 -5.5625 10.125 C-3.48515009 6.84303299 -1.66833498 3.51228417 0 0 Z " fill="#3A89AE" transform="translate(174,58)"/>
<path d="M0 0 C0.66 1.32 1.32 2.64 2 4 C2.66 4 3.32 4 4 4 C4 4.99 4 5.98 4 7 C4.82219025 6.92640762 5.64438049 6.85281525 6.4914856 6.7769928 C15.76742418 6.02139977 24.94299686 5.94259251 34.2421875 6.12109375 C35.74674642 6.14547608 37.25131424 6.16931512 38.75588989 6.19264221 C42.6652053 6.25467817 46.57435784 6.32396062 50.48352051 6.39489746 C54.49284618 6.4663208 58.50228491 6.53069066 62.51171875 6.59570312 C70.34127109 6.7236735 78.17066458 6.85932076 86 7 C86 6.01 86 5.02 86 4 C87.32 4.33 88.64 4.66 90 5 C89.34 6.32 88.68 7.64 88 9 C87.42006287 9.00364563 86.84012573 9.00729126 86.24261475 9.01104736 C80.20772191 9.05285068 74.17359115 9.12218059 68.13916016 9.20751953 C65.88695904 9.23574911 63.63465848 9.2569537 61.38232422 9.27099609 C58.14498917 9.2923976 54.90885226 9.33903495 51.671875 9.390625 C50.66445251 9.39185364 49.65703003 9.39308228 48.61907959 9.39434814 C43.06683942 9.42027013 43.06683942 9.42027013 38.33300781 12.03808594 C37.89311523 12.68551758 37.45322266 13.33294922 37 14 C37 12.35 37 10.7 37 9 C25.45 8.67 13.9 8.34 2 8 C1.67 8.66 1.34 9.32 1 10 C0.67 9.01 0.34 8.02 0 7 C-0.99 7 -1.98 7 -3 7 C-1.125 1.125 -1.125 1.125 0 0 Z " fill="#15436D" transform="translate(150,182)"/>
<path d="M0 0 C0.99 0.66 1.98 1.32 3 2 C3 2.66 3 3.32 3 4 C-0.6922029 5.2307343 -4.11279756 5.13538185 -7.95703125 5.140625 C-9.56056106 5.15895472 -11.16407708 5.17852519 -12.76757812 5.19921875 C-15.28905512 5.22815896 -17.80964505 5.24999945 -20.33129883 5.25048828 C-22.76983848 5.25383431 -25.20634616 5.28844684 -27.64453125 5.328125 C-28.39160843 5.3210553 -29.13868561 5.3139856 -29.90840149 5.30670166 C-35.77052524 5.44211916 -37.9252536 7.15222887 -42 11 C-43.5159375 11.495 -43.5159375 11.495 -45.0625 12 C-48.6980299 13.2376272 -50.46849244 15.17066802 -53 18 C-51.53809273 14.80707814 -49.73158625 12.19433866 -47.5625 9.4375 C-46.96566406 8.67308594 -46.36882812 7.90867188 -45.75390625 7.12109375 C-41.61502983 2.1157265 -41.61502983 2.1157265 -39.0827179 1.63923645 C-38.00016975 1.6492292 -38.00016975 1.6492292 -36.89575195 1.65942383 C-35.6648156 1.65976372 -35.6648156 1.65976372 -34.40901184 1.66011047 C-33.52767075 1.67559433 -32.64632965 1.69107819 -31.73828125 1.70703125 C-30.37959175 1.71339851 -30.37959175 1.71339851 -28.99345398 1.71989441 C-26.09950067 1.73669152 -23.20624294 1.7743455 -20.3125 1.8125 C-18.35092151 1.82754551 -16.38933211 1.84123415 -14.42773438 1.85351562 C-9.61822144 1.88659843 -4.80922867 1.93838778 0 2 C0 1.34 0 0.68 0 0 Z " fill="#789EBA" transform="translate(211,150)"/>
<path d="M0 0 C3.87511826 3.26963103 3.87511826 3.26963103 4.38671875 6.26171875 C3.86482062 9.95717926 2.03359463 12.24960669 -0.1875 15.125 C-1.11413806 16.37079292 -2.03850012 17.61828103 -2.9609375 18.8671875 C-3.45561523 19.53331055 -3.95029297 20.19943359 -4.45996094 20.88574219 C-7.17195616 24.60893157 -9.7321191 28.43501684 -12.3125 32.25 C-16.55302131 38.48693933 -20.87394821 44.65247098 -25.3125 50.75 C-35.87048784 65.26074803 -46.17952656 79.97855214 -56 95 C-56.33 94.01 -56.66 93.02 -57 92 C-55.86694336 89.86547852 -55.86694336 89.86547852 -54.08984375 87.37890625 C-53.43636963 86.45319824 -52.78289551 85.52749023 -52.10961914 84.57373047 C-51.39281982 83.58002441 -50.67602051 82.58631836 -49.9375 81.5625 C-49.21103271 80.53785645 -48.48456543 79.51321289 -47.73608398 78.45751953 C-46.23126798 76.33528854 -44.72250961 74.21584785 -43.20996094 72.09912109 C-39.96315593 67.54598999 -36.76348254 62.96039527 -33.5625 58.375 C-32.41031969 56.73035424 -31.25798157 55.08581902 -30.10546875 53.44140625 C-27.51509384 49.74098249 -24.94083974 46.02997337 -22.375 42.3125 C-19.41387571 38.02302088 -16.42158793 33.75747348 -13.40771484 29.50488281 C-11.85013448 27.30319744 -10.30184657 25.09518738 -8.75390625 22.88671875 C-7.17609379 20.64089599 -5.57531788 18.44720148 -3.90234375 16.26953125 C0.15009968 10.8566931 0.75630215 6.70868015 0 0 Z " fill="#D1EAF4" transform="translate(204,69)"/>
<path d="M0 0 C2 1.375 2 1.375 4 3 C4 3.66 4 4.32 4 5 C4.5775 5.20625 5.155 5.4125 5.75 5.625 C8.98462874 7.60171756 10.25888793 9.64214101 12 13 C13.0580843 17.63929271 12.75922963 19.66717145 10.40234375 23.8046875 C8.47804017 26.60557946 6.49626911 29.33502621 4.45166016 32.04785156 C1.70146921 35.74622472 -0.91675265 39.53911525 -3.5625 43.3125 C-4.60469036 44.78831041 -5.6475944 46.26361724 -6.69140625 47.73828125 C-7.45324219 48.81464844 -8.21507812 49.89101562 -9 51 C-9.58203125 49.12109375 -9.58203125 49.12109375 -10 47 C-8.6875 45.0625 -8.6875 45.0625 -7 43 C-6.28837557 41.35202764 -5.60968047 39.68834592 -5 38 C-4.01 38 -3.02 38 -2 38 C-1.62875 36.700625 -1.62875 36.700625 -1.25 35.375 C0.06960322 31.81207132 1.88484821 29.13861233 4 26 C4.76939681 23.77397385 4.76939681 23.77397385 5 22 C5.66 22 6.32 22 7 22 C7.66 19.36 8.32 16.72 9 14 C8.01 13.67 7.02 13.34 6 13 C6.66 13 7.32 13 8 13 C5.88673474 8.29157376 5.88673474 8.29157376 2 5 C2 4.34 2 3.68 2 3 C1.34 3 0.68 3 0 3 C-0.33 3.99 -0.66 4.98 -1 6 C-1.66 6 -2.32 6 -3 6 C-3 5.34 -3 4.68 -3 4 C-2.34 4 -1.68 4 -1 4 C-0.67 2.68 -0.34 1.36 0 0 Z " fill="#63BADB" transform="translate(193,58)"/>
<path d="M0 0 C0.66 0.33 1.32 0.66 2 1 C-4.53250932 10.98134965 -11.37812435 20.73606421 -18.23876953 30.49316406 C-21.1649238 34.65808672 -24.08236616 38.82910603 -27 43 C-27.66 42.34 -28.32 41.68 -29 41 C-28.38125 39.9790625 -28.38125 39.9790625 -27.75 38.9375 C-26.82719702 37.38850929 -25.91044834 35.83490065 -25.05078125 34.25 C-23.46865889 31.3484001 -22.28604732 29.24631853 -19.75 27.0625 C-17.68595109 24.62987093 -17.82021146 24.00934276 -17.9375 20.9375 C-18 17 -18 17 -16.5 15 C-16.005 14.67 -15.51 14.34 -15 14 C-15 14.66 -15 15.32 -15 16 C-14.34 16 -13.68 16 -13 16 C-12.67 15.01 -12.34 14.02 -12 13 C-11.67 13 -11.34 13 -11 13 C-10.67 11.35 -10.34 9.7 -10 8 C-8.35 7.67 -6.7 7.34 -5 7 C-5 6.34 -5 5.68 -5 5 C-4.34 5 -3.68 5 -3 5 C-2.690625 4.360625 -2.38125 3.72125 -2.0625 3.0625 C-1 1 -1 1 0 0 Z " fill="#134F7B" transform="translate(138,171)"/>
<path d="M0 0 C0.99 0.66 1.98 1.32 3 2 C3 2.66 3 3.32 3 4 C3.66 4 4.32 4 5 4 C6.67034942 6.2192209 8.1908183 8.41823005 9.6875 10.75 C10.11611328 11.38421875 10.54472656 12.0184375 10.98632812 12.671875 C12.19921875 14.546875 12.19921875 14.546875 14 18 C13.67 19.32 13.34 20.64 13 22 C-5.15 22 -23.3 22 -42 22 C-42 21.34 -42 20.68 -42 20 C-15.27 19.505 -15.27 19.505 12 19 C6.06 10.585 6.06 10.585 0 2 C0 1.34 0 0.68 0 0 Z " fill="#DBDEE4" transform="translate(296,197)"/>
<path d="M0 0 C0.99 0.33 1.98 0.66 3 1 C2.01 2.485 2.01 2.485 1 4 C0.54860541 6.0492094 0.54860541 6.0492094 0.375 8.1875 C0.25125 9.445625 0.1275 10.70375 0 12 C-1.98 12.66 -3.96 13.32 -6 14 C-6 15.65 -6 17.3 -6 19 C-6.99 19 -7.98 19 -9 19 C-9.33 19.99 -9.66 20.98 -10 22 C-10.99 22.33 -11.98 22.66 -13 23 C-14.23787241 24.73146205 -14.23787241 24.73146205 -15.3125 26.8125 C-17.64025899 30.74585179 -20.04210777 32.64210676 -24 35 C-25.36886951 36.29682374 -26.7169291 37.61823134 -28 39 C-25.26714586 31.35339333 -19.74428475 25.5753352 -14 20 C-13.67 19.34 -13.34 18.68 -13 18 C-12.01 18 -11.02 18 -10 18 C-9.72027344 17.41992188 -9.44054687 16.83984375 -9.15234375 16.2421875 C-8.05806254 14.11297593 -6.85875804 12.13601714 -5.5625 10.125 C-3.48515009 6.84303299 -1.66833498 3.51228417 0 0 Z " fill="#45ACDC" transform="translate(174,58)"/>
<path d="M0 0 C0 3.1241156 -0.53503505 4.72602413 -1.75 7.5625 C-2.07484375 8.34753906 -2.3996875 9.13257813 -2.734375 9.94140625 C-4.22121052 12.35980847 -5.45160729 12.87601378 -8 14 C-8.33 14.66 -8.66 15.32 -9 16 C6.84 16 22.68 16 39 16 C39.66 14.68 40.32 13.36 41 12 C42.625 10.25 42.625 10.25 44 9 C44.66 9.33 45.32 9.66 46 10 C43.86974732 13.31661291 41.79218422 16.40260526 37.9375 17.6875 C35.27188372 17.97567473 32.68172559 18.01755056 30 18 C28.33710938 18.03673828 28.33710938 18.03673828 26.640625 18.07421875 C14.41802145 18.23904639 2.20569218 17.57481717 -10 17 C-10 12.01405953 -7.99555463 9.93372258 -5 6.25 C-4.52304688 5.64800781 -4.04609375 5.04601562 -3.5546875 4.42578125 C-2.37839461 2.94365221 -1.19031607 1.47089057 0 0 Z " fill="#D0DDE9" transform="translate(132,201)"/>
<path d="M0 0 C0.33 0.66 0.66 1.32 1 2 C0.59007813 2.53367188 0.18015625 3.06734375 -0.2421875 3.6171875 C-3.31499857 7.86619419 -5.29258718 11.20056821 -6.0625 16.4375 C-6.4375 18.96875 -6.4375 18.96875 -7 21 C-9.5625 22.4375 -9.5625 22.4375 -12 23 C-12.33 23.99 -12.66 24.98 -13 26 C-14.32 26 -15.64 26 -17 26 C-17.433125 27.6396875 -17.433125 27.6396875 -17.875 29.3125 C-19 33 -19 33 -21 36 C-23.125 36.6875 -23.125 36.6875 -25 37 C-23.48995466 32.48683079 -20.97140965 28.99857762 -18.125 25.25 C-17.14049517 23.93205801 -16.15748224 22.61300057 -15.17578125 21.29296875 C-14.66096191 20.60122559 -14.14614258 19.90948242 -13.61572266 19.19677734 C-10.7923915 15.35810497 -8.05297971 11.46054649 -5.3125 7.5625 C-4.78350098 6.8106543 -4.25450195 6.05880859 -3.70947266 5.28417969 C-2.47181383 3.52360693 -1.23572412 1.76193125 0 0 Z " fill="#7099B8" transform="translate(117,136)"/>
<path d="M0 0 C0 4.27739287 -2.41880003 6.69800114 -4.875 10 C-5.7893128 11.24981693 -6.7033839 12.49981072 -7.6171875 13.75 C-8.02565918 14.30171875 -8.43413086 14.8534375 -8.85498047 15.421875 C-9.94226102 16.92042116 -10.97300744 18.45951116 -12 20 C-11.34 20.99 -10.68 21.98 -10 23 C-10.474375 23.433125 -10.94875 23.86625 -11.4375 24.3125 C-13.23686957 26.02309613 -13.23686957 26.02309613 -14 29 C-13.06414062 29.35771484 -13.06414062 29.35771484 -12.109375 29.72265625 C-9.43859602 31.3399613 -9.12256027 32.48533777 -8.25 35.4375 C-8.00765625 36.21996094 -7.7653125 37.00242188 -7.515625 37.80859375 C-7 40 -7 40 -7 43 C-7.81404297 41.87851563 -7.81404297 41.87851563 -8.64453125 40.734375 C-9.35996094 39.74953125 -10.07539063 38.7646875 -10.8125 37.75 C-11.52019531 36.77546875 -12.22789062 35.8009375 -12.95703125 34.796875 C-14.88546886 32.06194213 -14.88546886 32.06194213 -16.82421875 29.953125 C-18 28 -18 28 -17.91015625 25.5703125 C-16.83505397 22.53418676 -15.3909512 20.43627652 -13.4375 17.875 C-12.72335938 16.92625 -12.00921875 15.9775 -11.2734375 15 C-10.52320313 14.01 -9.77296875 13.02 -9 12 C-7.51681161 9.96125308 -6.03745899 7.91970849 -4.5625 5.875 C-1.12307692 1.12307692 -1.12307692 1.12307692 0 0 Z " fill="#AFBDD3" transform="translate(207,93)"/>
<path d="M0 0 C0.99 0.33 1.98 0.66 3 1 C2.67 1.66 2.34 2.32 2 3 C1.34 3 0.68 3 0 3 C-0.79275148 4.4160599 -1.58415312 5.83287553 -2.375 7.25 C-2.81585938 8.03890625 -3.25671875 8.8278125 -3.7109375 9.640625 C-5.01540545 11.94606139 -5.01540545 11.94606139 -5.9765625 14.234375 C-7 16 -7 16 -10 17 C-11.29003256 19.08502519 -11.29003256 19.08502519 -12.375 21.625 C-14.54797766 26.18039895 -16.78043576 30.10263276 -20 34 C-20.99 34 -21.98 34 -23 34 C-23.268125 34.78375 -23.53625 35.5675 -23.8125 36.375 C-25 39 -25 39 -28 41 C-26.37084425 35.89128936 -23.27925471 32.0027582 -20.125 27.75 C-18.95484123 26.15299398 -17.7855938 24.55531986 -16.6171875 22.95703125 C-16.0200293 22.14186035 -15.42287109 21.32668945 -14.80761719 20.48681641 C-11.38010852 15.77144589 -8.04122439 10.99349786 -4.69580078 6.21972656 C-1.09904122 1.09904122 -1.09904122 1.09904122 0 0 Z " fill="#9DCEE1" transform="translate(184,42)"/>
<path d="M0 0 C0.495 1.485 0.495 1.485 1 3 C-0.15893555 5.0871582 -0.15893555 5.0871582 -1.94921875 7.48828125 C-2.59938965 8.37725098 -3.24956055 9.2662207 -3.91943359 10.18212891 C-4.60602051 11.11202637 -5.29260742 12.04192383 -6 13 C-7.28313971 14.82275657 -8.56047037 16.64961596 -9.83203125 18.48046875 C-10.48107422 19.41044678 -11.13011719 20.3404248 -11.79882812 21.29858398 C-18.64802323 31.12478738 -25.42171396 40.99025225 -32 51 C-32.99 50.67 -33.98 50.34 -35 50 C-34.33355469 49.1028125 -33.66710937 48.205625 -32.98046875 47.28125 C-26.57019404 38.61598675 -20.38004233 29.82480902 -14.31103516 20.91796875 C-11.55445749 16.88525476 -8.75989908 12.87873326 -5.97265625 8.8671875 C-3.95191051 5.93010359 -1.97038721 2.97100891 0 0 Z " fill="#CADFEB" transform="translate(146,162)"/>
<path d="M0 0 C1.32 0.33 2.64 0.66 4 1 C3.44117551 4.80084062 2.43122625 7.25938116 0.234375 10.3984375 C-0.32636719 11.20796875 -0.88710937 12.0175 -1.46484375 12.8515625 C-2.05394531 13.68429688 -2.64304688 14.51703125 -3.25 15.375 C-3.82363281 16.2 -4.39726562 17.025 -4.98828125 17.875 C-6.64846387 20.25749442 -8.32323702 22.62915876 -10 25 C-10.49564453 25.71317383 -10.99128906 26.42634766 -11.50195312 27.16113281 C-12.64280854 28.79198153 -13.8176015 30.39901517 -15 32 C-15.33 32 -15.66 32 -16 32 C-16.36625971 27.48279689 -16.36625971 27.48279689 -14.625 25.1875 C-13 24 -13 24 -11 24 C-10.67 21.69 -10.34 19.38 -10 17 C-9.01 17.33 -8.02 17.66 -7 18 C-6.87625 17.236875 -6.7525 16.47375 -6.625 15.6875 C-6 13 -6 13 -4 10 C-3.34 10 -2.68 10 -2 10 C-2.04125 8.906875 -2.0825 7.81375 -2.125 6.6875 C-2 3 -2 3 0 0 Z " fill="#3884A8" transform="translate(179,106)"/>
<path d="M0 0 C1.0169313 2.65498232 1.13022151 3.69155375 0.00390625 6.359375 C-0.47175781 7.14828125 -0.94742188 7.9371875 -1.4375 8.75 C-1.91058594 9.54921875 -2.38367188 10.3484375 -2.87109375 11.171875 C-3.24363281 11.77515625 -3.61617187 12.3784375 -4 13 C-3.01 13.33 -2.02 13.66 -1 14 C-3.31 14 -5.62 14 -8 14 C-8 14.66 -8 15.32 -8 16 C-8.99 16.33 -9.98 16.66 -11 17 C-12.66589237 18.85811713 -12.66589237 18.85811713 -14.1875 21.0625 C-14.71730469 21.79597656 -15.24710938 22.52945313 -15.79296875 23.28515625 C-16.19128906 23.85105469 -16.58960938 24.41695312 -17 25 C-17 21.59664044 -16.54533912 21.02880917 -14.55078125 18.41796875 C-14.03193359 17.73283203 -13.51308594 17.04769531 -12.97851562 16.34179688 C-12.42873047 15.63087891 -11.87894531 14.91996094 -11.3125 14.1875 C-10.78205078 13.48818359 -10.25160156 12.78886719 -9.70507812 12.06835938 C-6.57031765 7.9566306 -3.33962149 3.94682539 0 0 Z " fill="#7E9AB2" transform="translate(151,176)"/>
<path d="M0 0 C0.33 0 0.66 0 1 0 C1.60895324 6.36559121 0.0786825 9.21347586 -3.6875 14 C-4.12255859 14.5775 -4.55761719 15.155 -5.00585938 15.75 C-5.88128056 16.91204056 -6.76260429 18.06965899 -7.64990234 19.22265625 C-9.83547431 22.09986492 -11.91247145 25.05113085 -14 28 C-14.58203125 26.12109375 -14.58203125 26.12109375 -15 24 C-13.6875 22.0625 -13.6875 22.0625 -12 20 C-11.28837557 18.35202764 -10.60968047 16.68834592 -10 15 C-9.01 15 -8.02 15 -7 15 C-6.773125 14.195625 -6.54625 13.39125 -6.3125 12.5625 C-4.66368412 8.08714261 -2.39455588 4.11278682 0 0 Z " fill="#4BAEDA" transform="translate(198,81)"/>
<path d="M0 0 C-0.33 0.99 -0.66 1.98 -1 3 C-1.66 3 -2.32 3 -3 3 C-2.87625 4.1446875 -2.87625 4.1446875 -2.75 5.3125 C-3 8 -3 8 -4.75 9.6875 C-7 11 -7 11 -8.9375 11.75 C-12.1956254 13.72462146 -13.94504916 16.8501983 -16 20 C-16 15.74644513 -13.66380286 13.30880842 -11.25 10 C-10.8065625 9.3709375 -10.363125 8.741875 -9.90625 8.09375 C-4.07600636 0 -4.07600636 0 0 0 Z " fill="#77ACC7" transform="translate(141,108)"/>
<path d="M0 0 C1.65 0 3.3 0 5 0 C5.042721 1.66611905 5.04063832 3.33382885 5 5 C4 6 4 6 1.13256836 6.11352539 C-0.11903076 6.10828857 -1.37062988 6.10305176 -2.66015625 6.09765625 C-3.65685585 6.09553383 -3.65685585 6.09553383 -4.6736908 6.09336853 C-6.80333899 6.08775518 -8.93288339 6.07520054 -11.0625 6.0625 C-12.50325369 6.05748671 -13.94400903 6.05292351 -15.38476562 6.04882812 C-18.92321102 6.03778145 -22.46159539 6.02050792 -26 6 C-24 4 -24 4 -21.66162109 3.77294922 C-20.70852051 3.78342285 -19.75541992 3.79389648 -18.7734375 3.8046875 C-17.2265625 3.81435547 -17.2265625 3.81435547 -15.6484375 3.82421875 C-14.02808594 3.84935547 -14.02808594 3.84935547 -12.375 3.875 C-11.28703125 3.88402344 -10.1990625 3.89304688 -9.078125 3.90234375 C-6.38519848 3.92596591 -3.69270745 3.95890444 -1 4 C-0.67 2.68 -0.34 1.36 0 0 Z " fill="#072E5D" transform="translate(105,210)"/>
<path d="M0 0 C3.60178621 3.40760295 6.3875644 6.83071668 9.0625 11 C11.53765361 14.84261472 14.08937497 18.47354116 17 22 C16.67 22.66 16.34 23.32 16 24 C15.1646875 22.9171875 15.1646875 22.9171875 14.3125 21.8125 C11.55805977 18.46250513 8.61666398 15.37715821 5.3125 12.5625 C3.40069715 10.28654423 2.84821396 7.82737986 2 5 C1.34588315 3.32836805 0.68346682 1.65984798 0 0 Z " fill="#BAE6F3" transform="translate(187,45)"/>
<path d="M0 0 C3.59388703 0.60619208 3.97050164 0.96397751 6.47265625 4.01953125 C7.34711417 5.27614984 8.21004765 6.5408507 9.0625 7.8125 C9.92815043 9.06917232 10.79403002 10.32568681 11.66015625 11.58203125 C12.06250488 12.17322754 12.46485352 12.76442383 12.87939453 13.37353516 C14.20003743 15.29033755 15.58198242 17.15425253 17 19 C16.67 19.66 16.34 20.32 16 21 C15.32453125 20.11957031 14.6490625 19.23914063 13.953125 18.33203125 C13.05210954 17.15883404 12.1510664 15.98565808 11.25 14.8125 C10.58484375 13.9452832 10.58484375 13.9452832 9.90625 13.06054688 C8.60789925 11.37078156 7.30439757 9.68509965 6 8 C5.27296875 7.05511719 4.5459375 6.11023438 3.796875 5.13671875 C2.17631929 2.92286311 2.17631929 2.92286311 0 2 C-0.268125 2.598125 -0.53625 3.19625 -0.8125 3.8125 C-1.98493467 5.97224808 -3.19369282 7.35790256 -5 9 C-3.7508258 5.54074837 -2.32472205 2.85306797 0 0 Z " fill="#D9E3ED" transform="translate(213,84)"/>
<path d="M0 0 C0.75 1.625 0.75 1.625 1 4 C-1.52238858 8.84298607 -4.43605148 11.14753217 -9 14 C-10.36886951 15.29682374 -11.7169291 16.61823134 -13 18 C-11.68058498 14.29649348 -10.07121349 11.50861956 -7.625 8.4375 C-7.03976563 7.69371094 -6.45453125 6.94992188 -5.8515625 6.18359375 C-4.00143857 4.00169654 -2.05118869 1.99245421 0 0 Z " fill="#7CB9D7" transform="translate(159,79)"/>
<path d="M0 0 C0.99 0.33 1.98 0.66 3 1 C2.67 1.66 2.34 2.32 2 3 C1.34 3 0.68 3 0 3 C-0.79275148 4.4160599 -1.58415312 5.83287553 -2.375 7.25 C-2.81585938 8.03890625 -3.25671875 8.8278125 -3.7109375 9.640625 C-5.01540545 11.94606139 -5.01540545 11.94606139 -5.9765625 14.234375 C-7 16 -7 16 -10 17 C-11.37195574 18.29355827 -12.71182656 19.62298702 -14 21 C-12.3825067 15.80968922 -9.14487963 11.93227414 -5.875 7.6875 C-5.31167969 6.94693359 -4.74835938 6.20636719 -4.16796875 5.44335938 C-2.78365711 3.62498391 -1.39425774 1.81075326 0 0 Z " fill="#BAE2F4" transform="translate(184,42)"/>
<path d="M0 0 C-0.33 1.32 -0.66 2.64 -1 4 C0.65 4.33 2.3 4.66 4 5 C4 5.33 4 5.66 4 6 C0.04 6 -3.92 6 -8 6 C-7.67 4.35 -7.34 2.7 -7 1 C-2.77108434 -1.38554217 -2.77108434 -1.38554217 0 0 Z " fill="#052F62" transform="translate(72,210)"/>
<path d="M0 0 C4.66154042 1.49835228 5.86610751 4.88463591 8 9 C7.34 9 6.68 9 6 9 C6 8.34 6 7.68 6 7 C3.36 7.33 0.72 7.66 -2 8 C-2 7.01 -2 6.02 -2 5 C-1.34 5 -0.68 5 0 5 C0 3.35 0 1.7 0 0 Z " fill="#21324A" transform="translate(283,183)"/>
<path d="M0 0 C0.99 0 1.98 0 3 0 C2.37027762 3.66770738 0.77360017 6.05717951 -1.375 9.0625 C-1.98085937 9.91972656 -2.58671875 10.77695313 -3.2109375 11.66015625 C-4.70748191 13.61742722 -6.20529643 15.32090617 -8 17 C-7.47731534 14.23723823 -6.89130413 11.6739124 -6 9 C-5.34 9 -4.68 9 -4 9 C-4 8.34 -4 7.68 -4 7 C-3.34 6.67 -2.68 6.34 -2 6 C-1.27306096 4.02111039 -0.60183749 2.02045442 0 0 Z " fill="#2B6D95" transform="translate(148,154)"/>
<path d="M0 0 C4.19813062 3.74427866 6.07776117 6.8403063 8 12 C7.01 12.495 7.01 12.495 6 13 C6 12.34 6 11.68 6 11 C4.68 10.34 3.36 9.68 2 9 C2 8.01 2 7.02 2 6 C1.34 6 0.68 6 0 6 C0 4.02 0 2.04 0 0 Z " fill="#7B8FAF" transform="translate(247,129)"/>
<path d="M0 0 C3.67056937 1.47797262 5.41085783 3.47615477 7.75 6.625 C8.67039063 7.85089844 8.67039063 7.85089844 9.609375 9.1015625 C10.29773438 10.04128906 10.29773438 10.04128906 11 11 C10.01 11.495 10.01 11.495 9 12 C8.34 11.67 7.68 11.34 7 11 C7 10.34 7 9.68 7 9 C5.68 8.34 4.36 7.68 3 7 C3 6.01 3 5.02 3 4 C2.01 4 1.02 4 0 4 C-0.33 4.66 -0.66 5.32 -1 6 C-1.66 6 -2.32 6 -3 6 C-2 4 -1 2 0 0 Z " fill="#3E5A8A" transform="translate(213,86)"/>
<path d="M0 0 C1.485 0.99 1.485 0.99 3 2 C3 2.66 3 3.32 3 4 C3.66 4 4.32 4 5 4 C6.66644821 6.24067726 8.18997102 8.46320802 9.6875 10.8125 C10.33041992 11.77639648 10.33041992 11.77639648 10.98632812 12.75976562 C12.07675699 14.45423239 13.04715165 16.22451901 14 18 C13.67 18.99 13.34 19.98 13 21 C10.82581478 17.88016876 8.66195438 14.75331652 6.5 11.625 C5.87996094 10.73554688 5.25992187 9.84609375 4.62109375 8.9296875 C4.03457031 8.07890625 3.44804687 7.228125 2.84375 6.3515625 C2.29912109 5.56604004 1.75449219 4.78051758 1.19335938 3.97119141 C0 2 0 2 0 0 Z " fill="#E0E4E8" transform="translate(296,197)"/>
<path d="M0 0 C0.66 0 1.32 0 2 0 C2 0.99 2 1.98 2 3 C1.34 3 0.68 3 0 3 C0 4.65 0 6.3 0 8 C-0.99 8 -1.98 8 -3 8 C-3.33 8.99 -3.66 9.98 -4 11 C-6.0625 11.6875 -6.0625 11.6875 -8 12 C-7.67 10.35 -7.34 8.7 -7 7 C-6.01 7 -5.02 7 -4 7 C-3.71125 6.401875 -3.4225 5.80375 -3.125 5.1875 C-2 3 -2 3 0 0 Z " fill="#3D9CC9" transform="translate(168,69)"/>
<path d="M0 0 C1.32 0.66 2.64 1.32 4 2 C1.375 6.875 1.375 6.875 -2 8 C-2.73323796 10.01508358 -2.73323796 10.01508358 -3 12 C-3.66 12 -4.32 12 -5 12 C-4.52389341 7.00088076 -2.96837781 4.02167317 0 0 Z " fill="#195F8C" transform="translate(115,141)"/>
<path d="M0 0 C2.35684297 1.98858626 3.82259382 3.2706635 4.5625 6.3125 C3.75295728 10.18031524 1.71559108 13.14451483 -1 16 C-1.66 16 -2.32 16 -3 16 C-1.125 11.125 -1.125 11.125 0 10 C0.07205511 8.31391034 0.08386068 6.62499341 0.0625 4.9375 C0.04896484 3.55884766 0.04896484 3.55884766 0.03515625 2.15234375 C0.02355469 1.44207031 0.01195312 0.73179688 0 0 Z " fill="#C5E9F3" transform="translate(204,69)"/>
<path d="M0 0 C1.58206057 0.00667536 3.16410534 0.0186375 4.74609375 0.03515625 C5.55240234 0.03966797 6.35871094 0.04417969 7.18945312 0.04882812 C9.18753131 0.06065107 11.18557158 0.07858711 13.18359375 0.09765625 C13.18359375 0.42765625 13.18359375 0.75765625 13.18359375 1.09765625 C8.89359375 1.09765625 4.60359375 1.09765625 0.18359375 1.09765625 C-0.14640625 2.41765625 -0.47640625 3.73765625 -0.81640625 5.09765625 C-1.80640625 5.09765625 -2.79640625 5.09765625 -3.81640625 5.09765625 C-4.37890625 3.16015625 -4.37890625 3.16015625 -4.81640625 1.09765625 C-3.81640625 0.09765625 -3.81640625 0.09765625 0 0 Z " fill="#0C213D" transform="translate(243.81640625,189.90234375)"/>
<path d="M0 0 C1.59036701 3.18073402 0.78365299 5.62426403 0 9 C-2.0625 10.4375 -2.0625 10.4375 -4 11 C-4.97791242 8.35963647 -5.03638105 7.12733368 -4.25 4.375 C-3 2 -3 2 0 0 Z " fill="#103C69" transform="translate(88,181)"/>
<path d="M0 0 C0 3.39832192 -0.77984413 5.08726829 -2.25 8.125 C-2.66765625 9.01445312 -3.0853125 9.90390625 -3.515625 10.8203125 C-5 13 -5 13 -7.171875 13.8046875 C-7.77515625 13.86914062 -8.3784375 13.93359375 -9 14 C-7.65070536 10.16336928 -5.92248975 7.34827431 -3.375 4.1875 C-2.42753906 3.00220703 -2.42753906 3.00220703 -1.4609375 1.79296875 C-0.97882813 1.20128906 -0.49671875 0.60960937 0 0 Z " fill="#94B1C6" transform="translate(101,159)"/>
<path d="M0 0 C4.04131267 1.34710422 4.90288434 3.38428334 7 7 C7 7.99 7 8.98 7 10 C6.34 10 5.68 10 5 10 C2 5.61538462 2 5.61538462 2 3 C1.34 3 0.68 3 0 3 C0 3.66 0 4.32 0 5 C-0.99 5.33 -1.98 5.66 -3 6 C-1.125 1.125 -1.125 1.125 0 0 Z " fill="#6EBDDC" transform="translate(184,44)"/>
<path d="M0 0 C0.99 0 1.98 0 3 0 C3.33 0.99 3.66 1.98 4 3 C3 4 3 4 0.49609375 4.09765625 C-1.01791016 4.08025391 -1.01791016 4.08025391 -2.5625 4.0625 C-3.57441406 4.05347656 -4.58632812 4.04445312 -5.62890625 4.03515625 C-6.41136719 4.02355469 -7.19382813 4.01195312 -8 4 C-8 3.01 -8 2.02 -8 1 C-5.36 1.33 -2.72 1.66 0 2 C0 1.34 0 0.68 0 0 Z " fill="#084E80" transform="translate(193,185)"/>
<path d="M0 0 C1.32 0.33 2.64 0.66 4 1 C3.75 3.375 3.75 3.375 3 6 C1 7.1875 1 7.1875 -1 8 C-1.33 8.66 -1.66 9.32 -2 10 C-2.25 3.375 -2.25 3.375 0 0 Z " fill="#2993C2" transform="translate(179,106)"/>
<path d="M0 0 C0.66 0 1.32 0 2 0 C0.88541926 5.9782058 -0.18602057 8.94612259 -5 13 C-4.25 7.25 -4.25 7.25 -2 5 C-1.29289322 3.35008418 -0.62056011 1.68437744 0 0 Z " fill="#40A1C9" transform="translate(188,96)"/>
<path d="M0 0 C0.66 1.32 1.32 2.64 2 4 C2.66 4 3.32 4 4 4 C4 4.99 4 5.98 4 7 C0.98968256 7.93423645 0.13349732 8.04449911 -3 7 C-1.125 1.125 -1.125 1.125 0 0 Z " fill="#0B4778" transform="translate(150,182)"/>
<path d="M0 0 C0.66 0.33 1.32 0.66 2 1 C0.08797357 5.78006608 -2.02766235 9.79772953 -5 14 C-5.66 13.34 -6.32 12.68 -7 12 C-6.5875 11.319375 -6.175 10.63875 -5.75 9.9375 C-3.79034942 6.64808652 -1.8926147 3.32839137 0 0 Z " fill="#16426F" transform="translate(116,200)"/>
<path d="M0 0 C3.59478807 3.32850747 6.22364768 6.98971331 9 11 C8.67 11.66 8.34 12.32 8 13 C5.5 11.1875 5.5 11.1875 3 9 C3 8.01 3 7.02 3 6 C2.01 5.67 1.02 5.34 0 5 C0 3.35 0 1.7 0 0 Z " fill="#445E83" transform="translate(238,118)"/>
<path d="M0 0 C0 4.06351009 -1.03165868 7.44007019 -3 11 C-5.6875 12.5 -5.6875 12.5 -8 13 C-6.40956621 7.91061189 -3.2553049 4.12543357 0 0 Z " fill="#96C3D8" transform="translate(145,97)"/>
<path d="M0 0 C0 3.23655184 -0.6550847 4.78752639 -2 7.6875 C-2.556875 8.89986328 -2.556875 8.89986328 -3.125 10.13671875 C-3.41375 10.75160156 -3.7025 11.36648437 -4 12 C-4.99 12 -5.98 12 -7 12 C-6.38801624 8.56049636 -5.07941153 6.48435515 -2.9375 3.75 C-2.38964844 3.04359375 -1.84179688 2.3371875 -1.27734375 1.609375 C-0.85582031 1.07828125 -0.43429688 0.5471875 0 0 Z " fill="#91A3B8" transform="translate(132,201)"/>
<path d="M0 0 C0.33 0.99 0.66 1.98 1 3 C-0.65234375 5.91796875 -0.65234375 5.91796875 -2.9375 9.1875 C-3.32357422 9.74630859 -3.70964844 10.30511719 -4.10742188 10.88085938 C-5.06242753 12.26031198 -6.03004093 13.63102056 -7 15 C-7.99 14.67 -8.98 14.34 -10 14 C-6.7 9.38 -3.4 4.76 0 0 Z " fill="#C1D3E1" transform="translate(121,198)"/>
<path d="M0 0 C1 3 1 3 -0.3125 5.6875 C-0.869375 6.450625 -1.42625 7.21375 -2 8 C-2.66 8 -3.32 8 -4 8 C-4.66 9.65 -5.32 11.3 -6 13 C-6.33 12.01 -6.66 11.02 -7 10 C-5.56640625 7.51953125 -5.56640625 7.51953125 -3.5625 4.8125 C-2.90378906 3.91144531 -2.24507812 3.01039063 -1.56640625 2.08203125 C-1.04949219 1.39496094 -0.53257812 0.70789063 0 0 Z " fill="#264169" transform="translate(137,196)"/>
<path d="M0 0 C0.66 0.33 1.32 0.66 2 1 C0.85821872 2.66944521 -0.28852905 4.3354948 -1.4375 6 C-2.07558594 6.928125 -2.71367187 7.85625 -3.37109375 8.8125 C-3.90863281 9.534375 -4.44617188 10.25625 -5 11 C-5.33 11 -5.66 11 -6 11 C-6.2519555 7.97653399 -6.20421041 6.3597993 -4.6875 3.6875 C-4.130625 3.130625 -3.57375 2.57375 -3 2 C-2.01 2 -1.02 2 0 2 C0 1.34 0 0.68 0 0 Z " fill="#3E91B4" transform="translate(178,114)"/>
<path d="M0 0 C0.33 0.66 0.66 1.32 1 2 C0.06421005 4.35981813 -0.93347808 6.69631264 -2 9 C-2.66 9 -3.32 9 -4 9 C-4.33 9.99 -4.66 10.98 -5 12 C-5.66 11.34 -6.32 10.68 -7 10 C-3.535 5.05 -3.535 5.05 0 0 Z " fill="#3B5985" transform="translate(201,103)"/>
<path d="M0 0 C2.50037734 2.17424117 3.43628586 3.73045798 4 7 C1.83125748 6.49396008 0.00032373 6.00016187 -2 5 C-1.125 1.125 -1.125 1.125 0 0 Z " fill="#1B4480" transform="translate(195,117)"/>
<path d="M0 0 C0.66 0.66 1.32 1.32 2 2 C0.1875 4.5 0.1875 4.5 -2 7 C-2.99 7 -3.98 7 -5 7 C-4.67 5.02 -4.34 3.04 -4 1 C-2.125 0.375 -2.125 0.375 0 0 Z " fill="#2590C3" transform="translate(156,89)"/>
<path d="M0 0 C1.5625 1.0625 1.5625 1.0625 3 3 C2.66666667 9.33333333 2.66666667 9.33333333 0 12 C0 8.72724974 0.29925156 6.153368 1 3 C0.01 2.67 -0.98 2.34 -2 2 C-1.34 2 -0.68 2 0 2 C0 1.34 0 0.68 0 0 Z " fill="#4BBAEA" transform="translate(201,69)"/>
<path d="M0 0 C1.65 0 3.3 0 5 0 C5 1.65 5 3.3 5 5 C2 5 2 5 -1 4 C-0.67 2.68 -0.34 1.36 0 0 Z " fill="#093768" transform="translate(105,210)"/>
<path d="M0 0 C0.93065133 2.60582371 1.14917407 3.64198224 0.0625 6.25 C-0.4634375 7.11625 -0.4634375 7.11625 -1 8 C-1.66 8 -2.32 8 -3 8 C-3.33 8.66 -3.66 9.32 -4 10 C-4.66 10 -5.32 10 -6 10 C-4.34832443 6.4213696 -2.21713508 3.25179812 0 0 Z " fill="#285277" transform="translate(93,172)"/>
<path d="M0 0 C1.875 0.25 1.875 0.25 4 1 C4.66 2.32 5.32 3.64 6 5 C2.7 5 -0.6 5 -4 5 C-4 4.67 -4 4.34 -4 4 C-2.35 4 -0.7 4 1 4 C0.67 2.68 0.34 1.36 0 0 Z " fill="#2D486F" transform="translate(257,148)"/>
<path d="M0 0 C0.66 0.33 1.32 0.66 2 1 C1.02501855 2.5027237 0.04490611 4.00211963 -0.9375 5.5 C-1.48277344 6.3353125 -2.02804688 7.170625 -2.58984375 8.03125 C-3.05519531 8.6809375 -3.52054688 9.330625 -4 10 C-4.33 10 -4.66 10 -5 10 C-5 8.35 -5 6.7 -5 5 C-4.34 5 -3.68 5 -3 5 C-2.5359375 4.0409375 -2.5359375 4.0409375 -2.0625 3.0625 C-1 1 -1 1 0 0 Z " fill="#296287" transform="translate(138,171)"/>
<path d="M0 0 C0.66 0 1.32 0 2 0 C2.33 1.32 2.66 2.64 3 4 C1.02 4.99 -0.96 5.98 -3 7 C-2.25 2.25 -2.25 2.25 0 0 Z " fill="#236B9B" transform="translate(123,130)"/>
<path d="M0 0 C1 3 1 3 -0.25 5.6875 C-0.8275 6.450625 -1.405 7.21375 -2 8 C-2.99 8 -3.98 8 -5 8 C-3.8141763 4.62496331 -2.72426311 2.35277269 0 0 Z " fill="#2E4F6F" transform="translate(72,202)"/>
<path d="M0 0 C0.99 0 1.98 0 3 0 C3.25 2.25 3.25 2.25 3 5 C1 7.3125 1 7.3125 -1 9 C-0.67 6.03 -0.34 3.06 0 0 Z " fill="#1A5781" transform="translate(130,178)"/>
<path d="M0 0 C0.99 0.33 1.98 0.66 3 1 C2.19152271 2.16945792 1.37810888 3.33550461 0.5625 4.5 C0.11003906 5.1496875 -0.34242188 5.799375 -0.80859375 6.46875 C-1.20175781 6.9740625 -1.59492188 7.479375 -2 8 C-2.33 8 -2.66 8 -3 8 C-3.36923077 3.44615385 -3.36923077 3.44615385 -1.5 1.1875 C-1.005 0.795625 -0.51 0.40375 0 0 Z " fill="#397DA3" transform="translate(159,140)"/>
<path d="M0 0 C0.33 0.99 0.66 1.98 1 3 C0.2884375 3.61875 0.2884375 3.61875 -0.4375 4.25 C-2.16266518 6.182185 -2.56584875 7.48192275 -3 10 C-4.32 9.67 -5.64 9.34 -7 9 C-4.69 6.03 -2.38 3.06 0 0 Z " fill="#3F5F87" transform="translate(209,92)"/>
<path d="M0 0 C0.99 0 1.98 0 3 0 C1.6302836 3.99500618 -0.25722422 6.80009492 -3 10 C-2.39009109 6.44219804 -1.4216319 3.3171411 0 0 Z " fill="#54ACCE" transform="translate(192,91)"/>
<path d="M0 0 C0.99 0 1.98 0 3 0 C2.34 1.98 1.68 3.96 1 6 C0.01 6 -0.98 6 -2 6 C-1.125 1.125 -1.125 1.125 0 0 Z " fill="#173760" transform="translate(66,210)"/>
<path d="M0 0 C0.66 0 1.32 0 2 0 C0.68775452 3.93673644 -0.91910327 6.22719294 -4 9 C-3.4739075 5.21213403 -2.61896089 2.82847776 0 0 Z " fill="#214E72" transform="translate(121,195)"/>
<path d="M0 0 C1.65 1.65 3.3 3.3 5 5 C4.01 5 3.02 5 2 5 C2 4.34 2 3.68 2 3 C1.34 3 0.68 3 0 3 C-0.33 3.99 -0.66 4.98 -1 6 C-1.66 6 -2.32 6 -3 6 C-3 5.34 -3 4.68 -3 4 C-2.34 4 -1.68 4 -1 4 C-0.67 2.68 -0.34 1.36 0 0 Z " fill="#4FBBE8" transform="translate(193,58)"/>
<path d="M0 0 C1.5 1.375 1.5 1.375 3 3 C3 3.66 3 4.32 3 5 C3.66 5.33 4.32 5.66 5 6 C3.35 6.33 1.7 6.66 0 7 C-1.125 2.25 -1.125 2.25 0 0 Z " fill="#4EBBEE" transform="translate(186,49)"/>
<path d="M0 0 C1.98 0.495 1.98 0.495 4 1 C4.33 2.65 4.66 4.3 5 6 C4.01 6.495 4.01 6.495 3 7 C2.34 6.67 1.68 6.34 1 6 C1 5.01 1 4.02 1 3 C0.34 3 -0.32 3 -1 3 C-0.67 2.01 -0.34 1.02 0 0 Z " fill="#0A4D7B" transform="translate(153,177)"/>
<path d="M0 0 C0.66 0 1.32 0 2 0 C2 0.99 2 1.98 2 3 C1.34 3 0.68 3 0 3 C0 4.65 0 6.3 0 8 C-0.99 8.495 -0.99 8.495 -2 9 C-3 6 -3 6 -1.5625 2.8125 C-1.046875 1.884375 -0.53125 0.95625 0 0 Z " fill="#35A3D7" transform="translate(168,69)"/>
<path d="M0 0 C0.66 0.33 1.32 0.66 2 1 C0.02 3.31 -1.96 5.62 -4 8 C-4.33 7.01 -4.66 6.02 -5 5 C-3.35 3.35 -1.7 1.7 0 0 Z " fill="#E0E5EE" transform="translate(176,210)"/>
<path d="M0 0 C0.66 0 1.32 0 2 0 C0.44499019 3.81684226 -2.03595495 6.19195732 -5 9 C-4.1875 6.0625 -4.1875 6.0625 -3 3 C-2.01 2.67 -1.02 2.34 0 2 C0 1.34 0 0.68 0 0 Z " fill="#033365" transform="translate(76,199)"/>
<path d="M0 0 C0.68707555 2.49064888 1 4.37886292 1 7 C0.01 7 -0.98 7 -2 7 C-2.33 5.35 -2.66 3.7 -3 2 C-2.01 1.34 -1.02 0.68 0 0 Z " fill="#094776" transform="translate(123,188)"/>
<path d="M0 0 C0.33 0 0.66 0 1 0 C1.25 2.8125 1.25 2.8125 1 6 C-1 7.875 -1 7.875 -3 9 C-3.33 8.34 -3.66 7.68 -4 7 C-3.34 7 -2.68 7 -2 7 C-2.33 6.01 -2.66 5.02 -3 4 C-2.34 3.67 -1.68 3.34 -1 3 C-0.67 2.01 -0.34 1.02 0 0 Z " fill="#043D71" transform="translate(94,173)"/>
<path d="M0 0 C1 2 1 2 0.3125 4.5625 C-1 7 -1 7 -3.125 7.8125 C-3.74375 7.874375 -4.3625 7.93625 -5 8 C-3.62845496 5.04590299 -2.01136276 2.55991624 0 0 Z " fill="#93B6CD" transform="translate(157,168)"/>
<path d="M0 0 C4.875 4.625 4.875 4.625 6 8 C5.34 8 4.68 8 4 8 C4 7.34 4 6.68 4 6 C2.68 5.67 1.36 5.34 0 5 C0 3.35 0 1.7 0 0 Z " fill="#475E8A" transform="translate(225,100)"/>
<path d="M0 0 C3.875 1.75 3.875 1.75 5 4 C3.35 4 1.7 4 0 4 C-0.33 4.66 -0.66 5.32 -1 6 C-1.66 6 -2.32 6 -3 6 C-2 4 -1 2 0 0 Z " fill="#496184" transform="translate(213,86)"/>
<path d="M0 0 C4.875 4.625 4.875 4.625 6 8 C4 8 4 8 1.875 6.25 C0 4 0 4 0 0 Z " fill="#394860" transform="translate(275,170)"/>
<path d="M0 0 C0.66 0 1.32 0 2 0 C2 0.66 2 1.32 2 2 C3.32 2.66 4.64 3.32 6 4 C5.67 5.32 5.34 6.64 5 8 C4.16382818 6.8562364 3.33113541 5.70992861 2.5 4.5625 C2.0359375 3.92441406 1.571875 3.28632812 1.09375 2.62890625 C0 1 0 1 0 0 Z " fill="#3B5480" transform="translate(191,120)"/>
</svg>
