<?xml version="1.0" encoding="UTF-8"?>
<svg version="1.1" xmlns="http://www.w3.org/2000/svg" width="403" height="448">
<path d="M0 0 C3.3345024 1.1115008 3.76596736 1.67847115 5.71484375 4.4375 C6.23006592 5.15905273 6.74528809 5.88060547 7.27612305 6.62402344 C7.82437744 7.4080957 8.37263184 8.19216797 8.9375 9 C9.79758667 10.21091309 9.79758667 10.21091309 10.67504883 11.44628906 C12.45736375 13.95910104 14.22921698 16.47905249 16 19 C17.05671136 20.49520196 18.1139777 21.99001189 19.171875 23.484375 C21.17429454 26.31510462 23.17262161 29.14865629 25.16796875 31.984375 C28.16287626 36.23704232 31.18609339 40.46905221 34.21606445 44.69677734 C36.44867298 47.81577801 38.66645618 50.94434576 40.8671875 54.0859375 C45.81000791 61.13786714 50.80283683 68.1326838 56 75 C61.70664426 82.54052341 67.16068961 90.24339667 72.5859375 97.98779297 C74.74921444 101.06613008 76.93609804 104.12735888 79.125 107.1875 C79.72260132 108.02680054 79.72260132 108.02680054 80.33227539 108.88305664 C82.46604609 111.87605224 84.62263432 114.8495525 86.80859375 117.8046875 C87.26927246 118.4335083 87.72995117 119.0623291 88.20458984 119.71020508 C89.08456963 120.91056586 89.9712297 122.10606916 90.86572266 123.2956543 C93.24255862 126.55353377 94.3518346 129.05299407 95 133 C87.29604704 133.25400875 79.59317626 133.42885392 71.88598633 133.54931641 C69.26578424 133.59953978 66.6458615 133.66773478 64.02661133 133.75439453 C60.25532169 133.87602596 56.48773981 133.93247506 52.71484375 133.9765625 C51.54791489 134.02817535 50.38098602 134.07978821 49.17869568 134.13296509 C41.18971634 134.13844763 41.18971634 134.13844763 37.74977112 130.84674072 C35.95238313 128.30209679 34.45484333 125.75179437 33 123 C32.13066729 121.66732309 31.24964671 120.34204377 30.34765625 119.03125 C29.583917 117.85547664 28.82213686 116.67842796 28.0625 115.5 C27.66482422 114.89414063 27.26714844 114.28828125 26.85742188 113.6640625 C24 109.23776355 24 109.23776355 24 107 C8.49 107 -7.02 107 -23 107 C-23.99 108.98 -23.99 108.98 -25 111 C-25.9194242 112.25301467 -26.87645585 113.47903674 -27.86328125 114.6796875 C-28.69956055 115.70255859 -28.69956055 115.70255859 -29.55273438 116.74609375 C-30.13345703 117.44863281 -30.71417969 118.15117187 -31.3125 118.875 C-31.88162109 119.56980469 -32.45074219 120.26460938 -33.03710938 120.98046875 C-34.68629434 122.99130048 -36.3404722 124.99769525 -38 127 C-38.66563965 128.05928711 -39.3312793 129.11857422 -40.01708984 130.20996094 C-41.73904753 132.25665201 -42.66233562 132.92344148 -45.29747009 133.52090454 C-48.21274963 133.69545466 -51.06906599 133.6742085 -53.98828125 133.5859375 C-55.57578438 133.57320297 -55.57578438 133.57320297 -57.19535828 133.56021118 C-60.56878337 133.52667946 -63.93979999 133.45139566 -67.3125 133.375 C-69.60217897 133.34490033 -71.89189549 133.31752454 -74.18164062 133.29296875 C-79.78857929 133.22688922 -85.39411758 133.12654233 -91 133 C-91 128.82355532 -90.82822787 128.26671417 -88.5078125 125.12890625 C-87.70573364 124.03098755 -87.70573364 124.03098755 -86.88745117 122.91088867 C-86.30584229 122.13592041 -85.7242334 121.36095215 -85.125 120.5625 C-84.52856689 119.75337158 -83.93213379 118.94424316 -83.31762695 118.1105957 C-79.2129308 112.56229646 -75.03985834 107.06737119 -70.80078125 101.62109375 C-68.54259905 98.71626947 -66.32129189 95.78491018 -64.10546875 92.84765625 C-63.40848877 91.92573486 -62.71150879 91.00381348 -61.9934082 90.05395508 C-60.62062298 88.23691713 -59.25049727 86.41786561 -57.88354492 84.59643555 C-45.76402527 68.58800842 -45.76402527 68.58800842 -41 67 C-38.0476047 66.98363764 -35.12479941 67.02590809 -32.17578125 67.12109375 C-30.88367989 67.15651024 -30.88367989 67.15651024 -29.56547546 67.19264221 C-26.81431325 67.2692128 -24.0634372 67.3532656 -21.3125 67.4375 C-19.44727963 67.4907273 -17.58204529 67.54346765 -15.71679688 67.59570312 C-11.14435004 67.72481904 -6.57214579 67.86064577 -2 68 C-7.85090536 59.4680602 -13.70084137 50.93757257 -19.6875 42.5 C-20.21021484 41.76136719 -20.73292969 41.02273437 -21.27148438 40.26171875 C-22.51336548 38.50713444 -23.75652339 36.75345393 -25 35 C-22.0517334 29.63119948 -18.75605989 24.6616516 -15.1875 19.6875 C-14.12081419 18.19160556 -13.05440686 16.6955125 -11.98828125 15.19921875 C-11.21991943 14.12293213 -11.21991943 14.12293213 -10.43603516 13.02490234 C-8.01423315 9.61000505 -5.65649459 6.15085771 -3.3046875 2.6875 C-2 1 -2 1 0 0 Z " fill="#0D5384" transform="translate(214,85)"/>
<path d="M0 0 C1.32 0 2.64 0 4 0 C5.9269454 2.36392199 7.55331962 4.63185237 9.1875 7.1875 C10.15388718 8.65955108 11.12135172 10.13089539 12.08984375 11.6015625 C12.57308105 12.34180664 13.05631836 13.08205078 13.55419922 13.84472656 C14.89897424 15.84939963 16.2999415 17.78457871 17.75390625 19.7109375 C18.17583252 20.27917236 18.59775879 20.84740723 19.0324707 21.43286133 C20.18398067 22.97413445 21.34939932 24.50498773 22.515625 26.03515625 C24.47863425 29.95600894 24.21589607 31.81344875 23 36 C21.49106028 38.43042963 20.02044537 40.53373042 18.25 42.75 C17.23919107 44.06932424 16.23151731 45.39105488 15.2265625 46.71484375 C14.43233887 47.75680908 14.43233887 47.75680908 13.62207031 48.81982422 C10.83415288 52.56697996 8.23746571 56.44197568 5.625 60.3125 C1.43376334 66.49420295 -2.84364487 72.59489105 -7.25 78.625 C-13.28057421 86.89031976 -19.02796279 95.33611441 -24.75927734 103.81079102 C-29.37713063 110.63311826 -34.06193363 117.3993577 -38.83325195 124.11499023 C-42.01216491 128.59161881 -45.1473235 133.09521855 -48.25 137.625 C-52.95814292 144.49378314 -57.69045424 151.34553901 -62.4375 158.1875 C-63.12424805 159.18023926 -63.81099609 160.17297852 -64.51855469 161.19580078 C-65.17114258 162.13536621 -65.82373047 163.07493164 -66.49609375 164.04296875 C-67.07544678 164.87852295 -67.6547998 165.71407715 -68.25170898 166.57495117 C-68.82864502 167.37521729 -69.40558105 168.1754834 -70 169 C-70.76824097 170.37575195 -70.76824097 170.37575195 -71.55200195 171.77929688 C-75.47174587 175.33509529 -79.56961389 174.61898225 -84.671875 174.48828125 C-85.70942932 174.48120651 -86.74698364 174.47413177 -87.815979 174.46684265 C-91.12805448 174.43886641 -94.43843599 174.37611929 -97.75 174.3125 C-99.99606933 174.28742143 -102.24216517 174.26460749 -104.48828125 174.24414062 C-109.99276492 174.1890294 -115.49626145 174.10537061 -121 174 C-121.33 173.34 -121.66 172.68 -122 172 C-118.92132959 167.33116728 -115.73370674 162.75002586 -112.5 158.1875 C-111.42572415 156.66931124 -110.35150702 155.15108092 -109.27734375 153.6328125 C-108.45919189 152.47700684 -108.45919189 152.47700684 -107.62451172 151.29785156 C-106.0811733 149.11481862 -104.54168575 146.92913872 -103.00390625 144.7421875 C-96.76379289 135.8718239 -90.44866987 127.05903434 -84.08984375 118.2734375 C-77.14187753 108.67160053 -70.28887791 99.00341205 -63.46069336 89.31616211 C-60.32257815 84.86626545 -57.16968022 80.42745941 -54 76 C-48.80983001 68.74856725 -43.66976349 61.46211842 -38.53222656 54.17333984 C-36.0231345 50.61439505 -33.511454 47.05727822 -31 43.5 C-29.99998722 42.08334236 -28.99998722 40.66667568 -28 39.25 C-26 36.41666667 -24 33.58333333 -22 30.75 C-21.50411377 30.04746094 -21.00822754 29.34492187 -20.49731445 28.62109375 C-19.50639431 27.21735753 -18.51534802 25.81371034 -17.52416992 24.41015625 C-14.8841581 20.67140867 -12.24693312 16.93073099 -9.61328125 13.1875 C-9.06091797 12.40310547 -8.50855469 11.61871094 -7.93945312 10.81054688 C-6.87355044 9.29678592 -5.80841739 7.78248266 -4.74414062 6.26757812 C-1.1124622 1.1124622 -1.1124622 1.1124622 0 0 Z " fill="#186FA4" transform="translate(183,44)"/>
<path d="M0 0 C0.639375 0.103125 1.27875 0.20625 1.9375 0.3125 C7.76310998 2.25436999 11.62006468 9.4041635 15 14.1875 C16.14827917 15.79568598 17.2967215 17.40375547 18.4453125 19.01171875 C19.03086914 19.83462402 19.61642578 20.6575293 20.21972656 21.50537109 C22.53097782 24.74403886 24.8644903 27.96626676 27.19995117 31.1875 C28.83965117 33.45119894 30.47328161 35.71916142 32.10546875 37.98828125 C33.821586 40.37347828 35.55141176 42.74426545 37.30078125 45.10546875 C40.66734105 49.71270691 42.855391 53.3914159 44 59 C44.33 59.99 44.66 60.98 45 62 C37.74217853 62.33062973 30.48630454 62.55765019 23.22265625 62.71411133 C20.75447044 62.77934473 18.28678439 62.86796083 15.8203125 62.98071289 C-4.16692385 63.87127322 -4.16692385 63.87127322 -8.87182617 60.76364136 C-12.09234789 57.34098774 -13.45616827 53.40407891 -15 49 C-16.73383317 46.22865584 -16.73383317 46.22865584 -18.5 43.9375 C-20.79982351 40.75077646 -21 40.1989856 -21 36 C-21.66 35.34 -22.32 34.68 -23 34 C-23.66 34 -24.32 34 -25 34 C-26.34412438 32.2197028 -27.60036819 30.37266253 -28.8125 28.5 C-29.87404297 26.86417969 -29.87404297 26.86417969 -30.95703125 25.1953125 C-31.63121094 24.14085937 -32.30539063 23.08640625 -33 22 C-33.54011719 21.17242187 -34.08023438 20.34484375 -34.63671875 19.4921875 C-38 14.26898281 -38 14.26898281 -38 12 C-38.66 12 -39.32 12 -40 12 C-42.5393228 8.58168085 -43.3636198 6.24223102 -43 2 C-43.66 2 -44.32 2 -45 2 C-45 1.34 -45 0.68 -45 0 C-43.61663452 -0.03758423 -43.61663452 -0.03758423 -42.20532227 -0.07592773 C-38.74428842 -0.17174768 -35.28338353 -0.27093418 -31.82250977 -0.37231445 C-30.33198748 -0.41530564 -28.8414272 -0.45700136 -27.35083008 -0.49731445 C-25.19340208 -0.55589698 -23.03614474 -0.61841786 -20.87890625 -0.68359375 C-20.18229889 -0.70424896 -19.48569153 -0.72490417 -18.76797485 -0.7461853 C-15.04597859 -0.8733555 -11.40259921 -1.14693921 -7.71484375 -1.66015625 C-3.88374379 -2.01063543 -3.16255088 -1.74252998 0 0 Z " fill="#11335A" transform="translate(261,154)"/>
<path d="M0 0 C3.3345024 1.1115008 3.76596736 1.67847115 5.71484375 4.4375 C6.23006592 5.15905273 6.74528809 5.88060547 7.27612305 6.62402344 C7.82437744 7.4080957 8.37263184 8.19216797 8.9375 9 C9.79758667 10.21091309 9.79758667 10.21091309 10.67504883 11.44628906 C12.45736375 13.95910104 14.22921698 16.47905249 16 19 C17.05671136 20.49520196 18.1139777 21.99001189 19.171875 23.484375 C21.17429454 26.31510462 23.17262161 29.14865629 25.16796875 31.984375 C27.76221132 35.66811166 30.37707656 39.33665203 33 43 C34.66753776 45.33271179 36.33390401 47.6662583 38 50 C38.51691406 50.72348633 39.03382813 51.44697266 39.56640625 52.19238281 C41.21396922 54.50111319 42.85739141 56.81274282 44.5 59.125 C45.01691406 59.84816406 45.53382813 60.57132813 46.06640625 61.31640625 C46.54980469 61.99832031 47.03320312 62.68023437 47.53125 63.3828125 C48.17416992 64.28604248 48.17416992 64.28604248 48.83007812 65.20751953 C50.05034592 67.07713684 51.0399152 68.98615006 52 71 C49.03 70.505 49.03 70.505 46 70 C46 69.34 46 68.68 46 68 C45.32807617 68.0714624 44.65615234 68.1429248 43.96386719 68.21655273 C35.04834617 69.0709444 26.19337541 69.1157583 17.25 69.0625 C15.76302236 69.05746985 14.27604305 69.05290965 12.7890625 69.04882812 C9.19267294 69.03795432 5.59634763 69.0207752 2 69 C2 69.66 2 70.32 2 71 C2.66 71 3.32 71 4 71 C4 72.65 4 74.3 4 76 C3.46375 75.484375 2.9275 74.96875 2.375 74.4375 C0.08082539 72.69372997 0.08082539 72.69372997 -2.59130859 73.45068359 C-6.84110316 74.1355452 -10.65015171 73.74335427 -14.9140625 73.3515625 C-17.56994637 73.16682531 -20.22653229 72.99571537 -22.88330078 72.82421875 C-24.70240791 72.69203786 -26.51985257 72.53436977 -28.33447266 72.35058594 C-38.58473441 71.08088421 -38.58473441 71.08088421 -47.97393799 74.38720703 C-51.53863983 77.85550003 -54.22477224 81.81346567 -56.78872681 86.05395508 C-58.69557393 89.11751678 -60.91017523 91.90275757 -63.125 94.75 C-65.15241597 97.46807416 -67.11886297 100.17829446 -69 103 C-67.02 103.66 -65.04 104.32 -63 105 C-64.98 105.99 -64.98 105.99 -67 107 C-68.485 106.01 -68.485 106.01 -70 105 C-70 105.99 -70 106.98 -70 108 C-71.98 108.495 -71.98 108.495 -74 109 C-74.66 111.31 -75.32 113.62 -76 116 C-76.59296875 116.08121094 -77.1859375 116.16242188 -77.796875 116.24609375 C-80.67557949 117.23118234 -81.52462386 118.59207507 -83.25 121.0625 C-83.77078125 121.79597656 -84.2915625 122.52945313 -84.828125 123.28515625 C-85.21484375 123.85105469 -85.6015625 124.41695313 -86 125 C-86 120.60441168 -83.34479862 118.14804484 -80.75 114.8125 C-79.6430066 113.36475349 -78.53624215 111.91683189 -77.4296875 110.46875 C-76.57455566 109.35693359 -76.57455566 109.35693359 -75.70214844 108.22265625 C-73.56924539 105.43752295 -71.46872143 102.62912534 -69.37109375 99.81738281 C-66.92369242 96.53767333 -64.46235338 93.26849103 -62 90 C-61.54850586 89.39994141 -61.09701172 88.79988281 -60.63183594 88.18164062 C-45.88563288 68.62854429 -45.88563288 68.62854429 -41 67 C-38.0476047 66.98363764 -35.12479941 67.02590809 -32.17578125 67.12109375 C-30.88367989 67.15651024 -30.88367989 67.15651024 -29.56547546 67.19264221 C-26.81431325 67.2692128 -24.0634372 67.3532656 -21.3125 67.4375 C-19.44727963 67.4907273 -17.58204529 67.54346765 -15.71679688 67.59570312 C-11.14435004 67.72481904 -6.57214579 67.86064577 -2 68 C-7.85090536 59.4680602 -13.70084137 50.93757257 -19.6875 42.5 C-20.21021484 41.76136719 -20.73292969 41.02273437 -21.27148438 40.26171875 C-22.51336548 38.50713444 -23.75652339 36.75345393 -25 35 C-22.0517334 29.63119948 -18.75605989 24.6616516 -15.1875 19.6875 C-14.12081419 18.19160556 -13.05440686 16.6955125 -11.98828125 15.19921875 C-11.21991943 14.12293213 -11.21991943 14.12293213 -10.43603516 13.02490234 C-8.01423315 9.61000505 -5.65649459 6.15085771 -3.3046875 2.6875 C-2 1 -2 1 0 0 Z " fill="#274C84" transform="translate(214,85)"/>
<path d="M0 0 C1.87870594 -0.01665027 3.75734627 -0.04405763 5.63574219 -0.08203125 C8.35425395 -0.13660555 11.07129878 -0.1586308 13.7902832 -0.17333984 C14.63092819 -0.19600922 15.47157318 -0.21867859 16.33769226 -0.24203491 C18.70507812 -0.23339844 18.70507812 -0.23339844 22.62231445 0.35009766 C24.69489223 2.78195512 25.62231445 4.14515047 25.62231445 7.35009766 C26.19723633 7.59115234 26.7721582 7.83220703 27.36450195 8.08056641 C30.05846247 9.59533659 31.70268989 11.34976188 33.74731445 13.66259766 C34.77211914 14.80148438 34.77211914 14.80148438 35.81762695 15.96337891 C38.27916788 19.21879342 39.342794 22.51153629 40.62231445 26.35009766 C33.36449298 26.68072739 26.10861899 26.90774784 18.8449707 27.06420898 C16.37678489 27.12944238 13.90909884 27.21805848 11.44262695 27.33081055 C-8.55186276 28.22169406 -8.55186276 28.22169406 -13.25656128 25.10568237 C-16.47513656 21.68362114 -17.86436417 17.76607327 -19.37768555 13.35009766 C-20.35475155 11.80078273 -21.37004414 10.27414806 -22.44018555 8.78759766 C-24.37768555 5.35009766 -24.37768555 5.35009766 -23.9987793 3.13525391 C-23.69133789 2.25160156 -23.69133789 2.25160156 -23.37768555 1.35009766 C-15.66247691 -0.18750261 -7.83572689 0.05095736 0 0 Z " fill="#061835" transform="translate(265.377685546875,189.64990234375)"/>
<path d="M0 0 C1.32 0.33 2.64 0.66 4 1 C4 1.66 4 2.32 4 3 C5.2375 2.835 6.475 2.67 7.75 2.5 C13.18748546 1.96325251 18.60306158 1.85280593 24.0625 1.8125 C24.90071289 1.79960937 25.73892578 1.78671875 26.60253906 1.7734375 C32.31318581 1.76449715 37.48354438 2.53210551 43 4 C41.53487953 8.59127868 38.89493413 11.76707158 35.75 15.3125 C34.80488791 16.38982306 33.86220032 17.46927761 32.921875 18.55078125 C32.46215302 19.06759964 32.00243103 19.58441803 31.52877808 20.11689758 C29.9542996 21.96132556 29.9542996 21.96132556 28.78421021 24.05937195 C26.82669905 27.26310133 25.35124257 29.59646495 21.65063477 30.70161438 C18.77952658 30.92575829 16.01022369 30.90040468 13.1328125 30.78125 C12.09808807 30.76993042 11.06336365 30.75861084 9.99728394 30.74694824 C6.70460887 30.70229758 3.41634987 30.60195298 0.125 30.5 C-2.11191611 30.45985852 -4.34890073 30.42335893 -6.5859375 30.390625 C-12.05878873 30.30260124 -17.52907893 30.168881 -23 30 C-20.65313813 25.84933165 -18.3612878 21.90564731 -15.4375 18.125 C-14.56931641 16.98417969 -14.56931641 16.98417969 -13.68359375 15.8203125 C-12 14 -12 14 -9 13 C-8.690625 12.175 -8.38125 11.35 -8.0625 10.5 C-7.711875 9.675 -7.36125 8.85 -7 8 C-4.875 7.1875 -4.875 7.1875 -3 7 C-3 6.01 -3 5.02 -3 4 C-2.38125 4.185625 -1.7625 4.37125 -1.125 4.5625 C1.04160178 5.23686176 1.04160178 5.23686176 3 4 C2.01 3.34 1.02 2.68 0 2 C0 1.34 0 0.68 0 0 Z " fill="#082F5F" transform="translate(147,186)"/>
<path d="M0 0 C1.9269454 2.36392199 3.55331962 4.63185237 5.1875 7.1875 C6.15388718 8.65955108 7.12135172 10.13089539 8.08984375 11.6015625 C8.57308105 12.34180664 9.05631836 13.08205078 9.55419922 13.84472656 C10.89897424 15.84939963 12.2999415 17.78457871 13.75390625 19.7109375 C14.17583252 20.27917236 14.59775879 20.84740723 15.0324707 21.43286133 C16.18398067 22.97413445 17.34939932 24.50498773 18.515625 26.03515625 C20.47863425 29.95600894 20.21589607 31.81344875 19 36 C17.49106028 38.43042963 16.02044537 40.53373042 14.25 42.75 C13.23919107 44.06932424 12.23151731 45.39105488 11.2265625 46.71484375 C10.43233887 47.75680908 10.43233887 47.75680908 9.62207031 48.81982422 C6.83415288 52.56697996 4.23746571 56.44197568 1.625 60.3125 C-2.56623666 66.49420295 -6.84364487 72.59489105 -11.25 78.625 C-17.28057421 86.89031976 -23.02796279 95.33611441 -28.75927734 103.81079102 C-33.37713063 110.63311826 -38.06193363 117.3993577 -42.83325195 124.11499023 C-46.01216491 128.59161881 -49.1473235 133.09521855 -52.25 137.625 C-56.95814292 144.49378314 -61.69045424 151.34553901 -66.4375 158.1875 C-67.12424805 159.18023926 -67.81099609 160.17297852 -68.51855469 161.19580078 C-69.17114258 162.13536621 -69.82373047 163.07493164 -70.49609375 164.04296875 C-71.07544678 164.87852295 -71.6547998 165.71407715 -72.25170898 166.57495117 C-72.82864502 167.37521729 -73.40558105 168.1754834 -74 169 C-74.76824097 170.37575195 -74.76824097 170.37575195 -75.55200195 171.77929688 C-79.47174587 175.33509529 -83.56961389 174.61898225 -88.671875 174.48828125 C-89.70942932 174.48120651 -90.74698364 174.47413177 -91.815979 174.46684265 C-95.12805448 174.43886641 -98.43843599 174.37611929 -101.75 174.3125 C-103.99606933 174.28742143 -106.24216517 174.26460749 -108.48828125 174.24414062 C-113.99276492 174.1890294 -119.49626145 174.10537061 -125 174 C-125.33 173.34 -125.66 172.68 -126 172 C-122.9213302 167.3311682 -119.73373764 162.75000406 -116.5 158.1875 C-115.43482931 156.68233874 -114.36972719 155.17712896 -113.3046875 153.671875 C-112.48822754 152.51848633 -112.48822754 152.51848633 -111.65527344 151.34179688 C-110.01923773 149.02721656 -108.38774891 146.7095036 -106.7578125 144.390625 C-106.23251953 143.64401611 -105.70722656 142.89740723 -105.16601562 142.12817383 C-104.17163061 140.71457803 -103.1780792 139.3003953 -102.18554688 137.88549805 C-98.87843742 133.18905572 -95.46928051 128.57783949 -92 124 C-92 127.42075742 -92.55761855 128.18125236 -94.45703125 130.921875 C-94.98731934 131.69281494 -95.51760742 132.46375488 -96.06396484 133.25805664 C-96.64098145 134.08039795 -97.21799805 134.90273926 -97.8125 135.75 C-98.3998291 136.59747803 -98.9871582 137.44495605 -99.59228516 138.31811523 C-104.13830616 144.84773185 -108.81164978 151.27874895 -113.546875 157.671875 C-119.22244222 165.05295704 -119.22244222 165.05295704 -124 173 C-117.79114951 173.2544077 -111.59203286 173.40081731 -105.37817383 173.45166016 C-103.27011491 173.483598 -101.1622736 173.54395997 -99.0559082 173.63427734 C-87.4280958 174.49766641 -87.4280958 174.49766641 -76.97341919 170.43600464 C-73.53721566 166.66700527 -71.14222137 162.44810959 -68.93495178 157.87423706 C-67.71226473 155.42319582 -66.18897251 153.26103686 -64.5625 151.0625 C-64.02753906 150.299375 -63.49257812 149.53625 -62.94140625 148.75 C-61.35027998 146.49617125 -59.75279665 144.24720056 -58.15234375 142 C-51.59896573 132.81967882 -51.59896573 132.81967882 -45.4375 123.375 C-42.25147633 118.25404975 -38.70555978 113.44817925 -35.11254883 108.61010742 C-32.34149443 104.86660372 -29.67836448 101.08502464 -27.125 97.1875 C-23.82675103 92.16287631 -20.34988574 87.29451066 -16.8125 82.4375 C-10.0126945 73.08900036 -3.49067542 63.56460778 3 54 C5.39287244 50.47714202 7.78935234 46.95676831 10.1875 43.4375 C10.74050781 42.621604 11.29351562 41.80570801 11.86328125 40.96508789 C12.37632812 40.21219482 12.889375 39.45930176 13.41796875 38.68359375 C13.86938232 38.01900146 14.3207959 37.35440918 14.78588867 36.66967773 C16 35 16 35 18 33 C17.67958603 30.39719432 17.67958603 30.39719432 17 28 C16.05125 27.731875 15.1025 27.46375 14.125 27.1875 C11 26 11 26 9 23 C8.34 24.32 7.68 25.64 7 27 C6.34 27 5.68 27 5 27 C5.04640625 26.16855469 5.0928125 25.33710937 5.140625 24.48046875 C5.17671875 23.39378906 5.2128125 22.30710937 5.25 21.1875 C5.29640625 20.10855469 5.3428125 19.02960937 5.390625 17.91796875 C5.28334207 14.91840063 5.28334207 14.91840063 3.171875 13.11328125 C0.96181314 11.77192292 0.96181314 11.77192292 -2 12 C-2 10.35 -2 8.7 -2 7 C-2.37125 7.86625 -2.37125 7.86625 -2.75 8.75 C-4.17690983 11.3184377 -5.92495266 12.92495266 -8 15 C-9.051875 16.60875 -9.051875 16.60875 -10.125 18.25 C-10.74375 19.1575 -11.3625 20.065 -12 21 C-12.66 21 -13.32 21 -14 21 C-13.94585937 21.7425 -13.89171875 22.485 -13.8359375 23.25 C-14.13851656 28.32180134 -17.93588885 32.16358456 -21.62890625 35.44921875 C-22.14324219 35.85785156 -22.65757812 36.26648438 -23.1875 36.6875 C-26.00663387 39.00545451 -27.32294713 40.80561359 -29 44 C-29.53625 44.86625 -30.0725 45.7325 -30.625 46.625 C-32.11943134 49.02220583 -32.11943134 49.02220583 -33 52 C-33.99 52.66 -34.98 53.32 -36 54 C-37.21284876 57.05429073 -37.21284876 57.05429073 -38 60 C-38.495 58.02 -38.495 58.02 -39 56 C-40.50559539 57.96382007 -41.89131683 59.78263366 -43 62 C-43.66 62 -44.32 62 -45 62 C-45 62.66 -45 63.32 -45 64 C-45.99 64 -46.98 64 -48 64 C-48.99 65.98 -48.99 65.98 -50 68 C-50 64.49901333 -49.35180617 63.71821009 -47.359375 60.9296875 C-46.78960937 60.12466797 -46.21984375 59.31964844 -45.6328125 58.49023438 C-45.01148438 57.62720703 -44.39015625 56.76417969 -43.75 55.875 C-43.11320312 54.97845703 -42.47640625 54.08191406 -41.8203125 53.15820312 C-40.50997764 51.31407647 -39.19681049 49.47195909 -37.88085938 47.63183594 C-35.71949403 44.60749554 -33.5745053 41.57193939 -31.43310547 38.53344727 C-30.47487237 37.17380102 -29.51555554 35.81491793 -28.55517578 34.45678711 C-25.80838378 30.57211666 -23.07431394 26.67890821 -20.3515625 22.77734375 C-19.73152344 21.88917969 -19.11148438 21.00101563 -18.47265625 20.0859375 C-17.27872431 18.37455091 -16.0859352 16.6623662 -14.89453125 14.94921875 C-13.8015032 13.38263053 -12.70305324 11.81980818 -11.59863281 10.26123047 C-10.5153872 8.72900371 -9.44740677 7.18589077 -8.39355469 5.63330078 C-7.87954102 4.89966309 -7.36552734 4.16602539 -6.8359375 3.41015625 C-6.38524902 2.75281494 -5.93456055 2.09547363 -5.47021484 1.41821289 C-4 0 -4 0 0 0 Z " fill="#72C2E2" transform="translate(187,44)"/>
<path d="M0 0 C3.0565024 2.58627126 4.79591539 4.32602704 5.96875 8.19921875 C6.0112391 13.36695497 4.10530914 15.73849168 1.0625 19.75 C0.55396484 20.45318359 0.04542969 21.15636719 -0.47851562 21.88085938 C-1.9682169 23.93412986 -3.48129955 25.96813373 -5 28 C-6.33493488 29.8321675 -7.66848545 31.66534529 -9 33.5 C-9.95132813 34.79550781 -9.95132813 34.79550781 -10.921875 36.1171875 C-13.90571945 40.25643036 -16.77682485 44.47046217 -19.65673828 48.68237305 C-23.01823348 53.59139636 -26.43218597 58.46023453 -29.875 63.3125 C-34.14464463 69.33411381 -38.34388986 75.39950361 -42.5 81.5 C-47.14467466 88.31762995 -51.85866578 95.08050621 -56.62988281 101.81005859 C-59.87359746 106.39023479 -63.07801762 110.99488608 -66.25 115.625 C-70.95821039 122.49373729 -75.69045388 129.3455385 -80.4375 136.1875 C-81.12424805 137.18023926 -81.81099609 138.17297852 -82.51855469 139.19580078 C-83.17114258 140.13536621 -83.82373047 141.07493164 -84.49609375 142.04296875 C-85.07544678 142.87852295 -85.6547998 143.71407715 -86.25170898 144.57495117 C-86.82864502 145.37521729 -87.40558105 146.1754834 -88 147 C-88.76824097 148.37575195 -88.76824097 148.37575195 -89.55200195 149.77929688 C-93.47174587 153.33509529 -97.56961389 152.61898225 -102.671875 152.48828125 C-103.70942932 152.48120651 -104.74698364 152.47413177 -105.815979 152.46684265 C-109.12805448 152.43886641 -112.43843599 152.37611929 -115.75 152.3125 C-117.99606933 152.28742143 -120.24216517 152.26460749 -122.48828125 152.24414062 C-127.99276492 152.1890294 -133.49626145 152.10537061 -139 152 C-139.33 151.34 -139.66 150.68 -140 150 C-136.9213302 145.3311682 -133.73373764 140.75000406 -130.5 136.1875 C-129.43482931 134.68233874 -128.36972719 133.17712896 -127.3046875 131.671875 C-126.48822754 130.51848633 -126.48822754 130.51848633 -125.65527344 129.34179688 C-124.01923773 127.02721656 -122.38774891 124.7095036 -120.7578125 122.390625 C-120.23251953 121.64401611 -119.70722656 120.89740723 -119.16601562 120.12817383 C-118.17163061 118.71457803 -117.1780792 117.3003953 -116.18554688 115.88549805 C-112.87843742 111.18905572 -109.46928051 106.57783949 -106 102 C-106 105.42075742 -106.55761855 106.18125236 -108.45703125 108.921875 C-108.98731934 109.69281494 -109.51760742 110.46375488 -110.06396484 111.25805664 C-110.64098145 112.08039795 -111.21799805 112.90273926 -111.8125 113.75 C-112.3998291 114.59747803 -112.9871582 115.44495605 -113.59228516 116.31811523 C-118.13830616 122.84773185 -122.81164978 129.27874895 -127.546875 135.671875 C-133.22244222 143.05295704 -133.22244222 143.05295704 -138 151 C-131.79114951 151.2544077 -125.59203286 151.40081731 -119.37817383 151.45166016 C-117.27011491 151.483598 -115.1622736 151.54395997 -113.0559082 151.63427734 C-101.4280958 152.49766641 -101.4280958 152.49766641 -90.97341919 148.43600464 C-87.53721566 144.66700527 -85.14222137 140.44810959 -82.93495178 135.87423706 C-81.71226473 133.42319582 -80.18897251 131.26103686 -78.5625 129.0625 C-78.02753906 128.299375 -77.49257812 127.53625 -76.94140625 126.75 C-75.35027998 124.49617125 -73.75279665 122.24720056 -72.15234375 120 C-65.59896573 110.81967882 -65.59896573 110.81967882 -59.4375 101.375 C-56.25147633 96.25404975 -52.70555978 91.44817925 -49.11254883 86.61010742 C-46.34149443 82.86660372 -43.67836448 79.08502464 -41.125 75.1875 C-37.82675103 70.16287631 -34.34988574 65.29451066 -30.8125 60.4375 C-24.0126945 51.08900036 -17.49067542 41.56460778 -11 32 C-8.60712756 28.47714202 -6.21064766 24.95676831 -3.8125 21.4375 C-3.25949219 20.621604 -2.70648438 19.80570801 -2.13671875 18.96508789 C-1.62367188 18.21219482 -1.110625 17.45930176 -0.58203125 16.68359375 C-0.13061768 16.01900146 0.3207959 15.35440918 0.78588867 14.66967773 C2 13 2 13 4 11 C3.90888062 8.46048456 3.90888062 8.46048456 3 6 C2.01 5.34 1.02 4.68 0 4 C0 2.68 0 1.36 0 0 Z " fill="#D4E3EF" transform="translate(201,66)"/>
<path d="M0 0 C3.38651828 0.02339059 6.75311289 -0.08108154 10.13745117 -0.1953125 C25.23147776 -0.38465129 25.23147776 -0.38465129 29.79840088 2.81396484 C32.74877815 5.95205043 34.38380186 9.45637822 36.05944824 13.4145813 C36.3552478 14.11050385 36.65104736 14.80642639 36.95581055 15.5234375 C37.32379761 16.40103729 37.69178467 17.27863708 38.07092285 18.18283081 C40.63778593 23.48809373 40.63778593 23.48809373 45.49763489 26.42669678 C48.67819675 26.78025731 51.71776013 26.80473068 54.91674805 26.71875 C56.0624527 26.72679657 57.20815735 26.73484314 58.38858032 26.74313354 C62.03772502 26.75810041 65.68212875 26.70420863 69.33081055 26.6484375 C71.80867574 26.64649535 74.28654881 26.64904788 76.7644043 26.65625 C82.82926368 26.66407215 88.89168759 26.6154066 94.95581055 26.5234375 C94.45436523 25.90984375 93.95291992 25.29625 93.4362793 24.6640625 C91.95581055 22.5234375 91.95581055 22.5234375 92.26831055 20.2734375 C92.60862305 19.4071875 92.60862305 19.4071875 92.95581055 18.5234375 C97.95581055 24.0234375 97.95581055 24.0234375 97.95581055 28.5234375 C90.25185759 28.77744625 82.5489868 28.95229142 74.84179688 29.07275391 C72.22159478 29.12297728 69.60167205 29.19117228 66.98242188 29.27783203 C63.21113223 29.39946346 59.44355036 29.45591256 55.6706543 29.5 C54.50372543 29.55161285 53.33679657 29.60322571 52.13450623 29.65640259 C44.14552688 29.66188513 44.14552688 29.66188513 40.70558167 26.37017822 C38.90819368 23.82553429 37.41065387 21.27523187 35.95581055 18.5234375 C35.08647783 17.19076059 34.20545726 15.86548127 33.3034668 14.5546875 C32.53972755 13.37891414 31.77794741 12.20186546 31.01831055 11.0234375 C30.62063477 10.41757813 30.22295898 9.81171875 29.81323242 9.1875 C26.95581055 4.76120105 26.95581055 4.76120105 26.95581055 2.5234375 C11.44581055 2.5234375 -4.06418945 2.5234375 -20.04418945 2.5234375 C-20.70418945 3.8434375 -21.36418945 5.1634375 -22.04418945 6.5234375 C-22.96361366 7.77645217 -23.9206453 9.00247424 -24.9074707 10.203125 C-25.74375 11.22599609 -25.74375 11.22599609 -26.59692383 12.26953125 C-27.17764648 12.97207031 -27.75836914 13.67460937 -28.35668945 14.3984375 C-28.92581055 15.09324219 -29.49493164 15.78804687 -30.08129883 16.50390625 C-31.7304838 18.51473798 -33.38466165 20.52113275 -35.04418945 22.5234375 C-35.7098291 23.58272461 -36.37546875 24.64201172 -37.0612793 25.73339844 C-38.78323698 27.78008951 -39.70652507 28.44687898 -42.34165955 29.04434204 C-45.25693908 29.21889216 -48.11325545 29.197646 -51.0324707 29.109375 C-52.09080612 29.10088531 -53.14914154 29.09239563 -54.23954773 29.08364868 C-57.61297282 29.05011696 -60.98398945 28.97483316 -64.35668945 28.8984375 C-66.64636842 28.86833783 -68.93608494 28.84096204 -71.22583008 28.81640625 C-76.83276874 28.75032672 -82.43830704 28.64997983 -88.04418945 28.5234375 C-88.04418945 24.5234375 -88.04418945 24.5234375 -86.04418945 22.2734375 C-85.38418945 21.6959375 -84.72418945 21.1184375 -84.04418945 20.5234375 C-85.03418945 22.9984375 -85.03418945 22.9984375 -86.04418945 25.5234375 C-70.86418945 25.8534375 -55.68418945 26.1834375 -40.04418945 26.5234375 C-39.38418945 25.2034375 -38.72418945 23.8834375 -38.04418945 22.5234375 C-36.70631981 20.78587236 -35.32645482 19.08029123 -33.91918945 17.3984375 C-33.19473633 16.52960938 -32.4702832 15.66078125 -31.72387695 14.765625 C-31.29373291 14.28512695 -30.86358887 13.80462891 -30.42041016 13.30957031 C-28.9203162 11.48874341 -28.9203162 11.48874341 -27.81445312 8.97949219 C-21.81983097 -1.59313374 -10.81502461 -0.1256374 0 0 Z " fill="#CED4E1" transform="translate(211.044189453125,189.4765625)"/>
<path d="M0 0 C0 1.65 0 3.3 0 5 C-0.99 5 -1.98 5 -3 5 C-5.2393873 7.79923413 -6.08870597 9.20164631 -5.6875 12.8125 C-5.460625 13.534375 -5.23375 14.25625 -5 15 C-5.763125 15.12375 -6.52625 15.2475 -7.3125 15.375 C-10.20267136 15.88102792 -10.20267136 15.88102792 -13 18 C-13.495 18.99 -13.99 19.98 -14.5 21 C-16 24 -16 24 -19 26 C-20.48985957 28.63590539 -21.81689621 30.99588245 -22.36328125 33.9921875 C-23.19143245 36.60365815 -24.44141191 37.55312953 -26.5625 39.25 C-27.20316406 39.77078125 -27.84382813 40.2915625 -28.50390625 40.828125 C-28.99761719 41.21484375 -29.49132812 41.6015625 -30 42 C-29.67 42.99 -29.34 43.98 -29 45 C-24.33691801 45.02468646 -19.67387392 45.04285349 -15.01074219 45.05493164 C-13.42382139 45.05996588 -11.83690523 45.06679369 -10.25 45.07543945 C-7.97134251 45.08754482 -5.69274624 45.09323733 -3.4140625 45.09765625 C-2.70255035 45.10281754 -1.99103821 45.10797882 -1.25796509 45.11329651 C2.49593556 45.17314758 2.49593556 45.17314758 6 44 C5.67 45.32 5.34 46.64 5 48 C-8.86 48 -22.72 48 -37 48 C-36.13494097 44.5397639 -35.74545983 43.330038 -33.7421875 40.6796875 C-33.05684937 39.76147217 -33.05684937 39.76147217 -32.35766602 38.82470703 C-31.86838623 38.18130371 -31.37910645 37.53790039 -30.875 36.875 C-29.85989285 35.51621052 -28.84556854 34.15683585 -27.83203125 32.796875 C-27.09460693 31.81170898 -27.09460693 31.81170898 -26.34228516 30.80664062 C-24.70806539 28.60707238 -23.12605318 26.37527504 -21.5625 24.125 C-20.76779297 22.98417969 -20.76779297 22.98417969 -19.95703125 21.8203125 C-18.83253701 20.19978387 -17.70883595 18.57870283 -16.58740234 16.95605469 C-14.97997483 14.63382752 -13.36528064 12.31676981 -11.75 10 C-11.22994385 9.24477051 -10.7098877 8.48954102 -10.17407227 7.71142578 C-9.67834717 7.00228027 -9.18262207 6.29313477 -8.671875 5.5625 C-8.2294043 4.92441406 -7.78693359 4.28632813 -7.33105469 3.62890625 C-5.07917533 0.87312139 -3.55471597 0 0 0 Z " fill="#1D416A" transform="translate(101,168)"/>
<path d="M0 0 C0 3 0 3 -1.16162109 5.40771484 C-2.29892308 7.96408584 -2.29892308 7.96408584 -1.06884766 10.22900391 C-0.52276855 10.97069824 0.02331055 11.71239258 0.5859375 12.4765625 C1.18390137 13.30744385 1.78186523 14.1383252 2.39794922 14.99438477 C3.05037598 15.86248779 3.70280273 16.73059082 4.375 17.625 C5.02098145 18.51566162 5.66696289 19.40632324 6.33251953 20.32397461 C8.20336429 22.89679632 10.09643537 25.4513269 12 28 C13.62761148 30.18560295 15.25268067 32.3729567 16.875 34.5625 C17.49117188 35.36816406 18.10734375 36.17382812 18.7421875 37.00390625 C20 39 20 39 20 42 C18.74453369 41.9779248 17.48906738 41.95584961 16.19555664 41.93310547 C11.504164 41.86398368 6.81461016 41.86130413 2.12280273 41.87792969 C0.09861772 41.8759919 -1.92563477 41.85641791 -3.94946289 41.81835938 C-15.51606245 41.27007383 -15.51606245 41.27007383 -26.12792969 44.95458984 C-28.46459346 47.50399465 -30.2167774 50.04176981 -32 53 C-33.26650291 54.6733229 -34.54494925 56.33768198 -35.8359375 57.9921875 C-37.02118695 59.61574583 -38.20093412 61.24333606 -39.375 62.875 C-40.57030985 64.5182311 -41.76562225 66.16146033 -42.9609375 67.8046875 C-43.47446777 68.51608887 -43.98799805 69.22749023 -44.51708984 69.96044922 C-45.99185665 71.98879988 -47.49038341 73.99749331 -49 76 C-47.02 76.66 -45.04 77.32 -43 78 C-44.98 78.99 -44.98 78.99 -47 80 C-48.485 79.01 -48.485 79.01 -50 78 C-50 78.99 -50 79.98 -50 81 C-51.98 81.495 -51.98 81.495 -54 82 C-54.66 84.31 -55.32 86.62 -56 89 C-56.59296875 89.08121094 -57.1859375 89.16242188 -57.796875 89.24609375 C-60.67557949 90.23118234 -61.52462386 91.59207507 -63.25 94.0625 C-63.77078125 94.79597656 -64.2915625 95.52945313 -64.828125 96.28515625 C-65.21484375 96.85105469 -65.6015625 97.41695313 -66 98 C-66 93.60441168 -63.34479862 91.14804484 -60.75 87.8125 C-59.6430066 86.36475349 -58.53624215 84.91683189 -57.4296875 83.46875 C-56.57455566 82.35693359 -56.57455566 82.35693359 -55.70214844 81.22265625 C-53.56924539 78.43752295 -51.46872143 75.62912534 -49.37109375 72.81738281 C-46.92369242 69.53767333 -44.46235338 66.26849103 -42 63 C-41.54850586 62.39994141 -41.09701172 61.79988281 -40.63183594 61.18164062 C-25.88563288 41.62854429 -25.88563288 41.62854429 -21 40 C-18.0476047 39.98363764 -15.12479941 40.02590809 -12.17578125 40.12109375 C-10.88367989 40.15651024 -10.88367989 40.15651024 -9.56547546 40.19264221 C-6.81431325 40.2692128 -4.0634372 40.3532656 -1.3125 40.4375 C0.55272037 40.4907273 2.41795471 40.54346765 4.28320312 40.59570312 C8.85564996 40.72481904 13.42785421 40.86064577 18 41 C12.14909464 32.4680602 6.29915863 23.93757257 0.3125 15.5 C-0.21021484 14.76136719 -0.73292969 14.02273437 -1.27148438 13.26171875 C-2.51336548 11.50713444 -3.75652339 9.75345393 -5 8 C-1.125 1.125 -1.125 1.125 0 0 Z " fill="#C8DCEA" transform="translate(194,112)"/>
<path d="M0 0 C0.37379048 5.12626951 -1.18743972 7.18860607 -4.27734375 11.08203125 C-5.82922678 12.80986474 -7.37337726 14.24620449 -9.1875 15.6875 C-12.00663387 18.00545451 -13.32294713 19.80561359 -15 23 C-15.53625 23.86625 -16.0725 24.7325 -16.625 25.625 C-18.11943134 28.02220583 -18.11943134 28.02220583 -19 31 C-19.99 31.66 -20.98 32.32 -22 33 C-23.21284876 36.05429073 -23.21284876 36.05429073 -24 39 C-24.33 37.68 -24.66 36.36 -25 35 C-26.50559539 36.96382007 -27.89131683 38.78263366 -29 41 C-29.66 41 -30.32 41 -31 41 C-31 41.66 -31 42.32 -31 43 C-31.99 43 -32.98 43 -34 43 C-34.66 44.32 -35.32 45.64 -36 47 C-36 43.49901333 -35.35180617 42.71821009 -33.359375 39.9296875 C-32.78888428 39.12345947 -32.21839355 38.31723145 -31.63061523 37.48657227 C-31.01001221 36.62475342 -30.38940918 35.76293457 -29.75 34.875 C-28.46481151 33.06903336 -27.17965585 31.26304335 -25.89453125 29.45703125 C-25.24307129 28.54646973 -24.59161133 27.6359082 -23.92041016 26.69775391 C-22.12010318 24.16871855 -20.34221144 21.62591268 -18.57421875 19.07421875 C-18.0440918 18.31189941 -17.51396484 17.54958008 -16.96777344 16.76416016 C-15.97443012 15.33500093 -14.98401802 13.90379821 -13.99707031 12.47021484 C-5.27070691 0 -5.27070691 0 0 0 Z " fill="#388FB9" transform="translate(173,65)"/>
<path d="M0 0 C1.9375 0.6875 1.9375 0.6875 4 2 C4.97265625 4.10546875 4.97265625 4.10546875 5 7 C3.48695902 9.79170045 1.50245889 12.17016612 -0.5 14.625 C-1.6254059 16.06014467 -2.74780971 17.49764861 -3.8671875 18.9375 C-4.41213867 19.63488281 -4.95708984 20.33226563 -5.51855469 21.05078125 C-7.9840998 24.29483402 -10.08087032 27.74129062 -12.21484375 31.20703125 C-14.80881128 35.26542684 -17.6249916 39.15521084 -20.44970703 43.05517578 C-20.8517334 43.61060059 -21.25375977 44.16602539 -21.66796875 44.73828125 C-22.06161621 45.27662598 -22.45526367 45.8149707 -22.86083984 46.36962891 C-24.00094831 48.00135722 -25.02663941 49.71106568 -26.05078125 51.41796875 C-26.69402344 52.27003906 -27.33726562 53.12210938 -28 54 C-29.32 54 -30.64 54 -32 54 C-31.36561422 50.89778384 -30.32688681 48.51774202 -28.6875 45.8125 C-28.27886719 45.11769531 -27.87023437 44.42289063 -27.44921875 43.70703125 C-25.72403114 41.67493694 -24.59521528 41.37074504 -22 41 C-22.33 38.69 -22.66 36.38 -23 34 C-19.535 33.505 -19.535 33.505 -16 33 C-15.67 30.69 -15.34 28.38 -15 26 C-14.1028125 25.9690625 -14.1028125 25.9690625 -13.1875 25.9375 C-10.62075361 25.11622067 -10.62075361 25.11622067 -9.375 21.75 C-8.92125 20.5125 -8.4675 19.275 -8 18 C-7.608125 17.030625 -7.21625 16.06125 -6.8125 15.0625 C-6.544375 14.381875 -6.27625 13.70125 -6 13 C-5.01 13 -4.02 13 -3 13 C-0.61775744 8.55314722 0.14021422 5.04771183 0 0 Z " fill="#2C94C3" transform="translate(201,70)"/>
<path d="M0 0 C1.94888306 -0.36076355 1.94888306 -0.36076355 4.35791016 -0.34057617 C5.25869293 -0.34034958 6.15947571 -0.34012299 7.08755493 -0.33988953 C8.06155243 -0.32440567 9.03554993 -0.30892181 10.0390625 -0.29296875 C11.03505463 -0.28872391 12.03104675 -0.28447906 13.05722046 -0.28010559 C16.24675225 -0.2632768 19.43565833 -0.22561676 22.625 -0.1875 C24.78384506 -0.1724586 26.9427 -0.15876925 29.1015625 -0.14648438 C34.40125612 -0.11335967 39.70058337 -0.06311896 45 0 C45 0.66 45 1.32 45 2 C45.66 2 46.32 2 47 2 C47 3.65 47 5.3 47 7 C46.46375 6.484375 45.9275 5.96875 45.375 5.4375 C42.16363921 3.49378163 40.65699377 4.35431499 37 5 C34.55335828 5.02622557 32.10566826 4.9928947 29.66015625 4.9140625 C28.97497421 4.89282318 28.28979218 4.87158386 27.58384705 4.84970093 C26.1424742 4.80369105 24.70119113 4.75478603 23.26000977 4.703125 C21.07260334 4.62535919 18.88505908 4.55805972 16.69726562 4.4921875 C10.39447569 4.28517415 4.23195484 3.9822239 -2 3 C-1.34 2.01 -0.68 1.02 0 0 Z " fill="#275E85" transform="translate(171,154)"/>
<path d="M0 0 C0.99 1.32 1.98 2.64 3 4 C2.34 4.99 1.68 5.98 1 7 C1 6.34 1 5.68 1 5 C0.3927861 5.00444122 -0.2144278 5.00888245 -0.84004211 5.01345825 C-7.15009207 5.05764612 -13.4600982 5.08784749 -19.77026367 5.10986328 C-22.12640162 5.11993155 -24.48252704 5.13358706 -26.83862305 5.15087891 C-30.22187386 5.17509076 -33.60495972 5.18647478 -36.98828125 5.1953125 C-38.57277824 5.21079636 -38.57277824 5.21079636 -40.18928528 5.22659302 C-41.17007553 5.22674408 -42.15086578 5.22689514 -43.16137695 5.22705078 C-44.02519485 5.231492 -44.88901276 5.23593323 -45.77900696 5.24050903 C-48 5 -48 5 -51 3 C-47.55070766 1.85023589 -45.01475436 1.93869887 -41.375 2 C-32.77243741 2.08997213 -24.1998938 1.73549508 -15.60693359 1.35546875 C-14.57906738 1.31035156 -13.55120117 1.26523438 -12.4921875 1.21875 C-11.53022461 1.17621094 -10.56826172 1.13367188 -9.57714844 1.08984375 C-7.49271127 1.01717675 -5.40594072 1.01353766 -3.3203125 1.03125 C-1.03779536 1.2703021 -1.03779536 1.2703021 0 0 Z " fill="#365F81" transform="translate(238,186)"/>
<path d="M0 0 C0.33 0.66 0.66 1.32 1 2 C1.66 2.33 2.32 2.66 3 3 C2.01 3.66 1.02 4.32 0 5 C-0.103125 5.598125 -0.20625 6.19625 -0.3125 6.8125 C-1.23462894 9.74654662 -3.14845237 10.80251548 -5.49609375 12.65234375 C-7.90366689 14.80977942 -8.94995771 16.97340752 -10 20 C-9.78892707 23.27885532 -9.78892707 23.27885532 -9 26 C-10.134375 26.433125 -11.26875 26.86625 -12.4375 27.3125 C-13.613125 27.869375 -14.78875 28.42625 -16 29 C-16.33 29.99 -16.66 30.98 -17 32 C-17.66 32 -18.32 32 -19 32 C-19.268125 32.598125 -19.53625 33.19625 -19.8125 33.8125 C-20.98493467 35.97224808 -22.19369282 37.35790256 -24 39 C-23.77205053 31.59586344 -21.14552324 27.58711642 -16.6875 21.8125 C-16.10548828 21.03197266 -15.52347656 20.25144531 -14.92382812 19.44726562 C-13.302314 17.28218617 -11.65507496 15.13946129 -10 13 C-9.24332031 11.99324219 -8.48664063 10.98648438 -7.70703125 9.94921875 C-7.14371094 9.30597656 -6.58039063 8.66273438 -6 8 C-5.34 8 -4.68 8 -4 8 C-3.566875 7.13375 -3.566875 7.13375 -3.125 6.25 C-1.5625 3.125 -1.5625 3.125 0 0 Z " fill="#12598A" transform="translate(128,125)"/>
<path d="M0 0 C3.91685634 3.51512748 4.92402815 4.62014075 6 10 C-12.15 10 -30.3 10 -49 10 C-48.67 9.34 -48.34 8.68 -48 8 C-31.17 8 -14.34 8 3 8 C2.01 6.68 1.02 5.36 0 4 C0 2.68 0 1.36 0 0 Z " fill="#B3B7BD" transform="translate(303,208)"/>
<path d="M0 0 C3.0565024 2.58627126 4.79591539 4.32602704 5.96875 8.19921875 C6.0112391 13.36695497 4.10530914 15.73849168 1.0625 19.75 C0.29969727 20.80477539 0.29969727 20.80477539 -0.47851562 21.88085938 C-1.9682169 23.93412986 -3.48129955 25.96813373 -5 28 C-6.33493488 29.8321675 -7.66848545 31.66534529 -9 33.5 C-9.62648437 34.35207031 -10.25296875 35.20414063 -10.8984375 36.08203125 C-13.53504994 39.74290391 -16.08025097 43.46243511 -18.625 47.1875 C-22.29465901 52.55902074 -26.02708646 57.84595 -30 63 C-30.33 62.34 -30.66 61.68 -31 61 C-11.65786011 32.68576826 -11.65786011 32.68576826 -5.81640625 24.56640625 C-5.26734619 23.7995752 -4.71828613 23.03274414 -4.15258789 22.24267578 C-3.07241234 20.73595137 -1.9871636 19.23284764 -0.89624023 17.73388672 C-0.40454346 17.04697754 0.08715332 16.36006836 0.59375 15.65234375 C1.25407227 14.73956665 1.25407227 14.73956665 1.92773438 13.80834961 C3.09864818 11.83363228 3.72509517 10.28176883 4 8 C2.68799596 6.64567325 1.35368596 5.31266518 0 4 C0 2.68 0 1.36 0 0 Z " fill="#D0EBF5" transform="translate(201,66)"/>
<path d="M0 0 C0 3.29657856 -0.74333269 5.16364428 -2 8.1875 C-2.37125 9.08855469 -2.7425 9.98960938 -3.125 10.91796875 C-3.41375 11.60503906 -3.7025 12.29210937 -4 13 C-4.99 13 -5.98 13 -7 13 C-7.226875 13.721875 -7.45375 14.44375 -7.6875 15.1875 C-9 18 -9 18 -11.2890625 20.2734375 C-14.12030185 23.12099523 -16.40905936 26.15203684 -18.6875 29.4375 C-19.1103125 30.03715576 -19.533125 30.63681152 -19.96875 31.25463867 C-21.31687792 33.1667235 -22.65886894 35.0830025 -24 37 C-25.82774565 39.6081529 -27.66210699 42.2114914 -29.5 44.8125 C-29.92112061 45.41698975 -30.34224121 46.02147949 -30.77612305 46.64428711 C-33.7742973 50.88714865 -33.7742973 50.88714865 -36 52 C-34.43364041 47.15262684 -31.64601479 43.65063509 -28.5625 39.6875 C-24.35045577 34.17787645 -20.27423132 28.61052579 -16.375 22.875 C-12.76226356 17.56427088 -9.10970691 12.28838826 -5.375 7.0625 C-4.73570557 6.1660376 -4.73570557 6.1660376 -4.08349609 5.25146484 C-1.1307251 1.1307251 -1.1307251 1.1307251 0 0 Z " fill="#CBE0EB" transform="translate(135,112)"/>
<path d="M0 0 C0.99 0 1.98 0 3 0 C3.66 0.99 4.32 1.98 5 3 C7.53087096 3.27976011 9.81401909 3.37241371 12.34375 3.328125 C13.06864624 3.32625183 13.79354248 3.32437866 14.54040527 3.32244873 C16.07369584 3.31572341 17.60696911 3.30179926 19.14013672 3.28125 C21.49072157 3.25012287 23.84063584 3.2402827 26.19140625 3.234375 C27.6796957 3.22520385 29.16797831 3.21482772 30.65625 3.203125 C31.36148804 3.19887512 32.06672607 3.19462524 32.79333496 3.19024658 C36.52164017 3.18533273 36.52164017 3.18533273 40 2 C39.67 3.32 39.34 4.64 39 6 C25.14 6 11.28 6 -3 6 C-2 2 -2 2 0 0 Z " fill="#163760" transform="translate(67,210)"/>
<path d="M0 0 C0.99 0.33 1.98 0.66 3 1 C2.44570312 1.68707031 1.89140625 2.37414062 1.3203125 3.08203125 C0.59585938 3.98308594 -0.12859375 4.88414062 -0.875 5.8125 C-1.59429687 6.70582031 -2.31359375 7.59914062 -3.0546875 8.51953125 C-5.07940706 11.03570953 -5.07940706 11.03570953 -7 14 C-9.02481079 14.36076355 -9.02481079 14.36076355 -11.54150391 14.34057617 C-12.95274033 14.34023628 -12.95274033 14.34023628 -14.39248657 14.33988953 C-15.41023163 14.32440567 -16.42797668 14.30892181 -17.4765625 14.29296875 C-18.51694672 14.28872391 -19.55733093 14.28447906 -20.62924194 14.28010559 C-23.96142147 14.26327482 -27.29300241 14.22561422 -30.625 14.1875 C-32.88019962 14.17245887 -35.13540869 14.15876947 -37.390625 14.14648438 C-42.92728855 14.11335699 -48.46360152 14.0631142 -54 14 C-50.375 7.25 -50.375 7.25 -47 5 C-48.33333333 7.66666667 -49.66666667 10.33333333 -51 13 C-45.64283721 12.90648818 -40.28612761 12.80039956 -34.92944336 12.68261719 C-33.10692176 12.64432005 -31.28432437 12.60946845 -29.46166992 12.578125 C-26.84266059 12.53249021 -24.22417326 12.47449378 -21.60546875 12.4140625 C-20.38188911 12.39673569 -20.38188911 12.39673569 -19.1335907 12.37905884 C-15.26635496 12.27802726 -13.28840215 12.1922681 -10 10 C-9.01 10 -8.02 10 -7 10 C-6.67 8.68 -6.34 7.36 -6 6 C-5.38125 5.938125 -4.7625 5.87625 -4.125 5.8125 C-1.72238859 5.171081 -1.72238859 5.171081 -0.75 2.4375 C-0.5025 1.633125 -0.255 0.82875 0 0 Z " fill="#2A3F5D" transform="translate(178,202)"/>
<path d="M0 0 C1.32 0 2.64 0 4 0 C3.44672839 4.4424456 1.7775912 7.21664431 -0.75 10.875 C-1.47058594 11.91914063 -2.19117187 12.96328125 -2.93359375 14.0390625 C-3.61550781 15.01617187 -4.29742187 15.99328125 -5 17 C-5.50660156 17.77085937 -6.01320313 18.54171875 -6.53515625 19.3359375 C-7.8125 21.25 -7.8125 21.25 -10 24 C-10.99 24 -11.98 24 -13 24 C-11.70206571 19.10778614 -10.30417072 14.51971949 -8 10 C-5.9375 8.8125 -5.9375 8.8125 -4 8 C-2.73195434 5.9664052 -2.73195434 5.9664052 -2 4 C-1.34 4 -0.68 4 0 4 C0 2.68 0 1.36 0 0 Z " fill="#094976" transform="translate(130,176)"/>
<path d="M0 0 C-2.7566308 6.0030849 -5.6957654 11.86745218 -11 16 C-18.34159283 18.61829315 -26.55553306 17.50455352 -34.1875 17 C-36.30506891 16.91963316 -38.42293158 16.8466482 -40.54101562 16.78125 C-45.70133141 16.60594389 -50.84740311 16.33068194 -56 16 C-55.67 15.34 -55.34 14.68 -55 14 C-41.14 14 -27.28 14 -13 14 C-12.67 12.35 -12.34 10.7 -12 9 C-8.79310345 6 -8.79310345 6 -6 6 C-6.495 3.525 -6.495 3.525 -7 1 C-3.375 -1.125 -3.375 -1.125 0 0 Z " fill="#587590" transform="translate(119,201)"/>
<path d="M0 0 C0.32092942 4.08650132 -0.27046547 5.98985559 -2.8125 9.1875 C-3.33457031 9.86167969 -3.85664063 10.53585938 -4.39453125 11.23046875 C-6.53322695 13.58771729 -8.26148464 14.88638225 -11.4375 15.375 C-14.62172934 16.1516413 -15.87999901 17.56592479 -18 20 C-15.70317512 13.62491046 -7.82513623 0 0 0 Z " fill="#39A0D3" transform="translate(173,65)"/>
<path d="M0 0 C-0.60886487 4.07546645 -2.75806036 6.76081979 -5.125 10.0625 C-5.94052902 11.21231875 -6.75430309 12.36338405 -7.56640625 13.515625 C-7.97391113 14.09376953 -8.38141602 14.67191406 -8.80126953 15.26757812 C-11.67412602 19.4194701 -14.33002279 23.71601727 -17 28 C-18.1171875 24.28125 -18.1171875 24.28125 -17.0625 21.75 C-16.711875 21.1725 -16.36125 20.595 -16 20 C-15.01 20 -14.02 20 -13 20 C-13.66 16.7 -14.32 13.4 -15 10 C-14.01 9.67 -13.02 9.34 -12 9 C-11.67 9.99 -11.34 10.98 -11 12 C-10.34 12 -9.68 12 -9 12 C-8.67 11.01 -8.34 10.02 -8 9 C-7.34 9 -6.68 9 -6 9 C-6.12375 7.6078125 -6.12375 7.6078125 -6.25 6.1875 C-6 3 -6 3 -4.125 1.125 C-2 0 -2 0 0 0 Z " fill="#2E6B8E" transform="translate(152,151)"/>
<path d="M0 0 C3.93677426 1.31225809 4.8271782 3.1961394 7.1875 6.5625 C7.90292969 7.57441406 8.61835938 8.58632812 9.35546875 9.62890625 C9.89816406 10.41136719 10.44085938 11.19382812 11 12 C10.67 12.66 10.34 13.32 10 14 C9.46375 13.236875 8.9275 12.47375 8.375 11.6875 C5.79794186 8.77135526 3.54185596 7.5294378 0 6 C-0.99 7.485 -0.99 7.485 -2 9 C-2.99 9 -3.98 9 -5 9 C-6.50556112 10.57248662 -6.50556112 10.57248662 -7.84765625 12.68359375 C-8.37037109 13.44607422 -8.89308594 14.20855469 -9.43164062 14.99414062 C-10.23891602 16.20360352 -10.23891602 16.20360352 -11.0625 17.4375 C-12.13290845 19.0221118 -13.20695431 20.60427447 -14.28515625 22.18359375 C-14.75832275 22.89056396 -15.23148926 23.59753418 -15.71899414 24.32592773 C-17 26 -17 26 -19 27 C-17.7291359 23.53562598 -16.26387249 20.70077672 -14.1015625 17.71484375 C-13.53953125 16.93689453 -12.9775 16.15894531 -12.3984375 15.35742188 C-11.81320313 14.55884766 -11.22796875 13.76027344 -10.625 12.9375 C-10.0475 12.13505859 -9.47 11.33261719 -8.875 10.50585938 C-6.13425902 6.73577617 -3.46558928 3.14975971 0 0 Z " fill="#D5DFEA" transform="translate(214,85)"/>
<path d="M0 0 C1.9375 0.6875 1.9375 0.6875 4 2 C4.98828125 4.08203125 4.98828125 4.08203125 5 7 C3.40092041 9.91496043 1.34113678 12.42409969 -0.75 15 C-1.85098369 16.39423636 -2.94999509 17.7900328 -4.046875 19.1875 C-4.56314453 19.84105469 -5.07941406 20.49460937 -5.61132812 21.16796875 C-7.26210663 23.34578905 -8.67494363 25.61116598 -10 28 C-11.40403242 23.78790273 -9.83701092 21.94617161 -8 18 C-7.32723284 16.3357865 -6.65793165 14.67013418 -6 13 C-5.01 13 -4.02 13 -3 13 C-0.61775744 8.55314722 0.14021422 5.04771183 0 0 Z " fill="#50AFD6" transform="translate(201,70)"/>
<path d="M0 0 C0 1.65 0 3.3 0 5 C-0.99 5 -1.98 5 -3 5 C-5.2393873 7.79923413 -6.08870597 9.20164631 -5.6875 12.8125 C-5.460625 13.534375 -5.23375 14.25625 -5 15 C-5.7425 15.103125 -6.485 15.20625 -7.25 15.3125 C-10.17014018 16.04253504 -11.73187554 17.06789398 -14 19 C-14.66 18.67 -15.32 18.34 -16 18 C-7.64285714 0 -7.64285714 0 0 0 Z " fill="#0F426F" transform="translate(101,168)"/>
<path d="M0 0 C4.89989333 4.47829639 8.52982022 9.69445869 12.3125 15.125 C12.95767578 16.03121094 13.60285156 16.93742187 14.26757812 17.87109375 C14.87666016 18.74121094 15.48574219 19.61132812 16.11328125 20.5078125 C16.66798096 21.29816895 17.22268066 22.08852539 17.79418945 22.90283203 C19 25 19 25 19 28 C18.278125 27.236875 17.55625 26.47375 16.8125 25.6875 C14.18258697 22.95610518 14.18258697 22.95610518 11.25 21.4375 C9 20 9 20 8.3125 17.875 C8.209375 17.25625 8.10625 16.6375 8 16 C7.34 15.67 6.68 15.34 6 15 C6 13.68 6 12.36 6 11 C5.34 11 4.68 11 4 11 C4 9.35 4 7.7 4 6 C3.01 6 2.02 6 1 6 C0.67 4.02 0.34 2.04 0 0 Z " fill="#3A4859" transform="translate(266,156)"/>
<path d="M0 0 C1.32 0.33 2.64 0.66 4 1 C3.46632812 1.76441406 2.93265625 2.52882813 2.3828125 3.31640625 C-3.52186476 11.80565677 -9.28881467 20.37956787 -15 29 C-15.33 28.34 -15.66 27.68 -16 27 C-16.66 26.67 -17.32 26.34 -18 26 C-16.68 25.67 -15.36 25.34 -14 25 C-13.7834375 24.071875 -13.7834375 24.071875 -13.5625 23.125 C-13 21 -13 21 -12 19 C-11.34 19 -10.68 19 -10 19 C-10.33 18.01 -10.66 17.02 -11 16 C-9.68 15.67 -8.36 15.34 -7 15 C-7.0825 14.278125 -7.165 13.55625 -7.25 12.8125 C-6.92089682 9.11008918 -5.41941043 7.76504049 -3 5 C-1.9731657 3.3497306 -0.96432076 1.68756133 0 0 Z " fill="#377FA5" transform="translate(168,124)"/>
<path d="M0 0 C0.33 0.66 0.66 1.32 1 2 C1.66 2.33 2.32 2.66 3 3 C2.01 3.66 1.02 4.32 0 5 C-0.1546875 5.8971875 -0.1546875 5.8971875 -0.3125 6.8125 C-1.23526209 9.7485612 -3.14339696 10.80792013 -5.5078125 12.640625 C-7.78359696 14.71385273 -8.7872337 17.2106375 -10 20 C-10.66 20.99 -11.32 21.98 -12 23 C-12.66 23 -13.32 23 -14 23 C-14.33 23.66 -14.66 24.32 -15 25 C-15.765625 23.38671875 -15.765625 23.38671875 -16 21 C-14.66366118 18.74418912 -13.364815 16.84697057 -11.75 14.8125 C-11.34136719 14.26658203 -10.93273437 13.72066406 -10.51171875 13.15820312 C-8.41687298 10.44029229 -7.32156846 9.10718949 -4 8 C-2.87483915 6.16715557 -2.87483915 6.16715557 -2 4 C-1.33333333 2.66666667 -0.66666667 1.33333333 0 0 Z " fill="#316B8E" transform="translate(128,125)"/>
<path d="M0 0 C0 3 0 3 -1.16381836 5.40551758 C-2.30115315 7.96790454 -2.30115315 7.96790454 -1.05297852 10.24487305 C-0.22431274 11.36696167 -0.22431274 11.36696167 0.62109375 12.51171875 C1.22759766 13.35283203 1.83410156 14.19394531 2.45898438 15.06054688 C3.43834961 16.36088867 3.43834961 16.36088867 4.4375 17.6875 C5.68619792 19.39973958 6.93489583 21.11197917 8.18359375 22.82421875 C10.13750569 25.47873255 12.09634383 28.12878405 14.07080078 30.76806641 C14.71903809 31.6554248 15.36727539 32.5427832 16.03515625 33.45703125 C16.62820557 34.25729736 17.22125488 35.05756348 17.83227539 35.88208008 C18.21762451 36.58099365 18.60297363 37.27990723 19 38 C18.67 38.99 18.34 39.98 18 41 C17.01773438 39.56333984 17.01773438 39.56333984 16.015625 38.09765625 C9.09982015 28.00106756 2.07922971 17.98257872 -5 8 C-1.125 1.125 -1.125 1.125 0 0 Z " fill="#D3DCE9" transform="translate(194,112)"/>
<path d="M0 0 C1 3 1 3 0.06298828 4.87841797 C-0.42959473 5.57596191 -0.92217773 6.27350586 -1.4296875 6.9921875 C-1.97391357 7.77424561 -2.51813965 8.55630371 -3.07885742 9.36206055 C-3.67158447 10.19133057 -4.26431152 11.02060059 -4.875 11.875 C-5.46837158 12.7203833 -6.06174316 13.5657666 -6.6730957 14.43676758 C-7.87536249 16.14962828 -9.08116261 17.8600145 -10.29052734 19.56787109 C-11.82001901 21.7439345 -13.3190422 23.93579867 -14.80078125 26.14453125 C-15.20893066 26.74990723 -15.61708008 27.3552832 -16.03759766 27.97900391 C-17.12402891 29.59319624 -18.20855814 31.20866826 -19.29296875 32.82421875 C-19.85628906 33.54222656 -20.41960937 34.26023438 -21 35 C-21.66 35 -22.32 35 -23 35 C-21.44654072 30.29498252 -18.83532385 26.82984257 -15.875 22.9375 C-11.01102021 16.43293986 -6.43678479 9.80529396 -2 3 C-1.34 2.01 -0.68 1.02 0 0 Z " fill="#C2D4E1" transform="translate(132,181)"/>
<path d="M0 0 C0.66 0.99 1.32 1.98 2 3 C0.09305781 6.47335898 -1.64775368 9.57730442 -4.1875 12.625 C-6.12584252 15.1648971 -6.6412627 16.86104866 -7 20 C-6.34 20.33 -5.68 20.66 -5 21 C-5.66 21.99 -6.32 22.98 -7 24 C-9.125 21.3125 -9.125 21.3125 -11 18 C-9.8315265 13.51060182 -7.03564366 9.91655837 -4.375 6.1875 C-3.95476562 5.59001953 -3.53453125 4.99253906 -3.1015625 4.37695312 C-2.07220272 2.91479435 -1.0367177 1.45695101 0 0 Z " fill="#435C83" transform="translate(202,102)"/>
<path d="M0 0 C0.33 0.66 0.66 1.32 1 2 C-0.8125 2.625 -0.8125 2.625 -3 3 C-3.99 2.34 -4.98 1.68 -6 1 C-6 1.99 -6 2.98 -6 4 C-7.32 4.33 -8.64 4.66 -10 5 C-10.66 7.31 -11.32 9.62 -12 12 C-12.59296875 12.08121094 -13.1859375 12.16242188 -13.796875 12.24609375 C-16.67557949 13.23118234 -17.52462386 14.59207507 -19.25 17.0625 C-19.77078125 17.79597656 -20.2915625 18.52945313 -20.828125 19.28515625 C-21.40820312 20.13400391 -21.40820312 20.13400391 -22 21 C-22 17.56625454 -21.48417328 16.93659979 -19.48046875 14.27734375 C-18.95259766 13.57416016 -18.42472656 12.87097656 -17.88085938 12.14648438 C-17.32205078 11.41751953 -16.76324219 10.68855469 -16.1875 9.9375 C-15.64029297 9.20466797 -15.09308594 8.47183594 -14.52929688 7.71679688 C-10.0673373 1.82701023 -7.77085808 -0.29323993 0 0 Z " fill="#8598AE" transform="translate(150,189)"/>
<path d="M0 0 C4.48410364 4.15133157 7.85035049 8.79385556 11.3125 13.8125 C12.13717773 14.99489258 12.13717773 14.99489258 12.97851562 16.20117188 C14.32356086 18.13101938 15.66388807 20.06396201 17 22 C16.67 22.66 16.34 23.32 16 24 C12.73991357 20.83047153 9.77762123 17.60062011 7 14 C6.01 14.495 6.01 14.495 5 15 C3.5393715 12.35261084 3 11.10551666 3 8 C2.01642648 5.99187074 1.01691264 3.99145391 0 2 C0 1.34 0 0.68 0 0 Z " fill="#8D94A0" transform="translate(286,184)"/>
<path d="M0 0 C0.66 0 1.32 0 2 0 C2 2.31 2 4.62 2 7 C1.2575 7.2475 0.515 7.495 -0.25 7.75 C-3.24840999 9.11291363 -4.87959545 10.50095178 -7 13 C-7.33 13.99 -7.66 14.98 -8 16 C-8.99 16 -9.98 16 -11 16 C-10.67 17.32 -10.34 18.64 -10 20 C-11.32 19.34 -12.64 18.68 -14 18 C-11.85536521 15.18658422 -9.70909177 12.37442284 -7.5625 9.5625 C-6.95083984 8.76005859 -6.33917969 7.95761719 -5.70898438 7.13085938 C-5.12568359 6.36708984 -4.54238281 5.60332031 -3.94140625 4.81640625 C-3.40201416 4.10943604 -2.86262207 3.40246582 -2.30688477 2.67407227 C-1 1 -1 1 0 0 Z " fill="#23557B" transform="translate(158,170)"/>
<path d="M0 0 C1 2 1 2 0.8125 4 C0 6 0 6 -2.0625 7.25 C-3.0215625 7.62125 -3.0215625 7.62125 -4 8 C-2.25 2.25 -2.25 2.25 0 0 Z M-6 8 C-5.34 8.33 -4.68 8.66 -4 9 C-4.99 11.97 -5.98 14.94 -7 18 C-7.99 18 -8.98 18 -10 18 C-10.99 18.66 -11.98 19.32 -13 20 C-13.66 19.67 -14.32 19.34 -15 19 C-14.07544441 17.491987 -13.1349253 15.99375083 -12.1875 14.5 C-11.66542969 13.6646875 -11.14335937 12.829375 -10.60546875 11.96875 C-10.07566406 11.3190625 -9.54585937 10.669375 -9 10 C-8.01 10 -7.02 10 -6 10 C-6 9.34 -6 8.68 -6 8 Z " fill="#267FAC" transform="translate(148,98)"/>
<path d="M0 0 C0.8125 1.6875 0.8125 1.6875 1 4 C-1.25 6.5 -1.25 6.5 -4 9 C-7.20036152 12.569634 -8.43439288 16.5268368 -10 21 C-10.66 21 -11.32 21 -12 21 C-12 21.66 -12 22.32 -12 23 C-12.99 23 -13.98 23 -15 23 C-15.66 24.32 -16.32 25.64 -17 27 C-17 23.36405998 -16.12513685 22.39620592 -14.04296875 19.47265625 C-13.42486328 18.59802734 -12.80675781 17.72339844 -12.16992188 16.82226562 C-11.51572266 15.91154297 -10.86152344 15.00082031 -10.1875 14.0625 C-9.54490234 13.15564453 -8.90230469 12.24878906 -8.24023438 11.31445312 C-5.53764252 7.50841962 -2.81303712 3.72534471 0 0 Z " fill="#C4E1EC" transform="translate(154,85)"/>
<path d="M0 0 C0 3.29657856 -0.74333269 5.16364428 -2 8.1875 C-2.37125 9.08855469 -2.7425 9.98960938 -3.125 10.91796875 C-3.41375 11.60503906 -3.7025 12.29210937 -4 13 C-4.99 13 -5.98 13 -7 13 C-7.433125 14.1446875 -7.433125 14.1446875 -7.875 15.3125 C-9 18 -9 18 -11 21 C-11.66 20.67 -12.32 20.34 -13 20 C-11.43062793 15.30085164 -8.83473621 11.70040411 -5.9375 7.75 C-5.47794922 7.11320312 -5.01839844 6.47640625 -4.54492188 5.8203125 C-1.19148166 1.19148166 -1.19148166 1.19148166 0 0 Z " fill="#87ADC5" transform="translate(135,112)"/>
<path d="M0 0 C3.94770164 3.74142534 7.16555496 7.69596624 10.3125 12.125 C10.76689453 12.74503906 11.22128906 13.36507812 11.68945312 14.00390625 C15 18.63369361 15 18.63369361 15 22 C14.61328125 21.54109375 14.2265625 21.0821875 13.828125 20.609375 C8.45352262 14.22799322 8.45352262 14.22799322 2 9 C0.32358826 5.64717651 0 3.83880578 0 0 Z " fill="#CAD4E0" transform="translate(250,134)"/>
<path d="M0 0 C0.5775 0.763125 1.155 1.52625 1.75 2.3125 C3.81325943 5.01685852 3.81325943 5.01685852 6.25 6.5625 C7.11625 7.2740625 7.11625 7.2740625 8 8 C8 9.32 8 10.64 8 12 C7.01 12 6.02 12 5 12 C4.34 11.01 3.68 10.02 3 9 C2.34 10.32 1.68 11.64 1 13 C0.34 13 -0.32 13 -1 13 C-1.02686553 11.02090602 -1.04633375 9.04171029 -1.0625 7.0625 C-1.07410156 5.96035156 -1.08570313 4.85820313 -1.09765625 3.72265625 C-1 1 -1 1 0 0 Z " fill="#55B9E3" transform="translate(193,58)"/>
<path d="M0 0 C1.32 0 2.64 0 4 0 C3.4492849 4.52253917 1.67847837 7.39299316 -0.875 11.125 C-1.57367188 12.15882813 -2.27234375 13.19265625 -2.9921875 14.2578125 C-4.56267263 16.40271632 -6.04587449 18.21793585 -8 20 C-7.44271087 16.65626525 -6.64826111 13.96687001 -5 11 C-4.34 11 -3.68 11 -3 11 C-2.67 9.68 -2.34 8.36 -2 7 C-1.34 7 -0.68 7 0 7 C-0.33 6.01 -0.66 5.02 -1 4 C-0.5625 1.8125 -0.5625 1.8125 0 0 Z " fill="#285272" transform="translate(130,176)"/>
<path d="M0 0 C0.33 0.99 0.66 1.98 1 3 C0.25556641 3.81791016 0.25556641 3.81791016 -0.50390625 4.65234375 C-6.05400018 10.81326395 -11.39504354 17.09256531 -16 24 C-16.99 23.67 -17.98 23.34 -19 23 C-18.59910156 22.55011719 -18.19820312 22.10023438 -17.78515625 21.63671875 C-11.60471185 14.64342679 -5.54561276 7.5111464 0 0 Z " fill="#C7D2DF" transform="translate(190,191)"/>
<path d="M0 0 C0.66 0 1.32 0 2 0 C0.54269514 4.37191458 -1.64109173 8.78027302 -5 12 C-6.32 12 -7.64 12 -9 12 C-8.35241592 8.50304596 -7.09758712 5.87447123 -5 3 C-2.875 2.3125 -2.875 2.3125 -1 2 C-0.67 1.34 -0.34 0.68 0 0 Z " fill="#398EB2" transform="translate(178,112)"/>
<path d="M0 0 C1.32 0 2.64 0 4 0 C5.484375 1.53125 5.484375 1.53125 6.75 3.5 C7.39195312 4.47453125 7.39195312 4.47453125 8.046875 5.46875 C8.36140625 5.9740625 8.6759375 6.479375 9 7 C8.67 7.66 8.34 8.32 8 9 C7.34 8.67 6.68 8.34 6 8 C6 7.34 6 6.68 6 6 C2.7 6.33 -0.6 6.66 -4 7 C-2.92598892 4.08482708 -2.22189824 2.22189824 0 0 Z " fill="#B5DFE9" transform="translate(183,44)"/>
<path d="M0 0 C-0.08739614 5.33116428 -0.08739614 5.33116428 -1 8 C-4.3125 9.75 -4.3125 9.75 -8 11 C-10.37791979 13.04044964 -10.37791979 13.04044964 -12 15 C-10.57514503 10.84417301 -5.0420287 0 0 0 Z " fill="#8CC8E0" transform="translate(177,56)"/>
<path d="M0 0 C1.53445094 3.06890187 0.54984289 5.70094266 0 9 C-0.639375 9.12375 -1.27875 9.2475 -1.9375 9.375 C-2.618125 9.58125 -3.29875 9.7875 -4 10 C-4.33 10.66 -4.66 11.32 -5 12 C-5.99 12 -6.98 12 -8 12 C-7.58388059 7.1452735 -5.54108048 5.19560921 -2 2 C-1.34 1.34 -0.68 0.68 0 0 Z " fill="#466F8F" transform="translate(104,158)"/>
<path d="M0 0 C2.475 0.99 2.475 0.99 5 2 C5 4.31 5 6.62 5 9 C7.64 9 10.28 9 13 9 C12.67 9.66 12.34 10.32 12 11 C9.36 11 6.72 11 4 11 C2.35 7.7 0.7 4.4 -1 1 C-0.67 0.67 -0.34 0.34 0 0 Z " fill="#33527C" transform="translate(210,143)"/>
<path d="M0 0 C0.66 0 1.32 0 2 0 C2 0.66 2 1.32 2 2 C3.98 2 5.96 2 8 2 C7.01 2.495 7.01 2.495 6 3 C6.33 4.98 6.66 6.96 7 9 C7.99 9.33 8.98 9.66 10 10 C10 10.66 10 11.32 10 12 C10.99 12.66 11.98 13.32 13 14 C12.67 15.32 12.34 16.64 12 18 C9.99621864 15.19017627 7.99761621 12.37670932 6 9.5625 C5.42765625 8.76005859 4.8553125 7.95761719 4.265625 7.13085938 C3.72421875 6.36708984 3.1828125 5.60332031 2.625 4.81640625 C2.12226563 4.10943604 1.61953125 3.40246582 1.1015625 2.67407227 C0 1 0 1 0 0 Z " fill="#3D557F" transform="translate(196,126)"/>
<path d="M0 0 C5.63689034 1.32632714 7.93185683 5.46631765 11 10 C10.67 10.66 10.34 11.32 10 12 C9.46375 11.236875 8.9275 10.47375 8.375 9.6875 C5.79794186 6.77135526 3.54185596 5.5294378 0 4 C-0.99 5.485 -0.99 5.485 -2 7 C-2.66 6.67 -3.32 6.34 -4 6 C-2.84826645 3.53199953 -1.95216435 1.95216435 0 0 Z " fill="#8B9DB6" transform="translate(214,87)"/>
<path d="M0 0 C5.57142857 5.14285714 5.57142857 5.14285714 6 9 C3.36 9 0.72 9 -2 9 C-2 5.20442119 -1.49821059 3.37097383 0 0 Z " fill="#273752" transform="translate(283,182)"/>
<path d="M0 0 C0.66 0 1.32 0 2 0 C0.51194289 5.80342274 -2.59097555 10.17590879 -6 15 C-7.1171875 11.28125 -7.1171875 11.28125 -6.0625 8.75 C-5.711875 8.1725 -5.36125 7.595 -5 7 C-4.01 7 -3.02 7 -2 7 C-2 5.35 -2 3.7 -2 2 C-1.34 2 -0.68 2 0 2 C0 1.34 0 0.68 0 0 Z " fill="#316A8B" transform="translate(141,164)"/>
<path d="M0 0 C1.60031344 3.20062687 0.03173691 5.72271806 -1 9 C-1.86625 9.12375 -1.86625 9.12375 -2.75 9.25 C-5.6159304 10.20531013 -6.9990764 11.78469173 -9 14 C-7.65070536 10.16336928 -5.92248975 7.34827431 -3.375 4.1875 C-2.42753906 3.00220703 -2.42753906 3.00220703 -1.4609375 1.79296875 C-0.97882813 1.20128906 -0.49671875 0.60960938 0 0 Z " fill="#ABD2E4" transform="translate(164,71)"/>
<path d="M0 0 C1.32 0 2.64 0 4 0 C3.55166054 4.9317341 1.13973905 8.3192924 -2 12 C-2.33 12 -2.66 12 -3 12 C-3 10.35 -3 8.7 -3 7 C-2.34 7 -1.68 7 -1 7 C-0.67 4.69 -0.34 2.38 0 0 Z " fill="#47A1C7" transform="translate(186,96)"/>
<path d="M0 0 C0.99 0 1.98 0 3 0 C1.6744419 3.62276315 0.05653045 6.63505348 -2.125 9.8125 C-2.93324219 10.99779297 -2.93324219 10.99779297 -3.7578125 12.20703125 C-4.16773438 12.79871094 -4.57765625 13.39039063 -5 14 C-5.33 13.34 -5.66 12.68 -6 12 C-6.66 11.67 -7.32 11.34 -8 11 C-6.68 10.67 -5.36 10.34 -4 10 C-3.855625 9.38125 -3.71125 8.7625 -3.5625 8.125 C-3 6 -3 6 -2 4 C-1.34 4 -0.68 4 0 4 C-0.33 3.01 -0.66 2.02 -1 1 C-0.67 0.67 -0.34 0.34 0 0 Z " fill="#38799B" transform="translate(158,139)"/>
<path d="M0 0 C0.33 0.66 0.66 1.32 1 2 C1.66 2.33 2.32 2.66 3 3 C2.01 3.66 1.02 4.32 0 5 C-0.103125 5.61875 -0.20625 6.2375 -0.3125 6.875 C-1.40352555 10.24726079 -4.06463947 11.25127458 -7 13 C-6.67 11.35 -6.34 9.7 -6 8 C-5.34 8 -4.68 8 -4 8 C-3.71125 7.4225 -3.4225 6.845 -3.125 6.25 C-2.08333333 4.16666667 -1.04166667 2.08333333 0 0 Z " fill="#1D6692" transform="translate(128,125)"/>
<path d="M0 0 C-0.375 1.9375 -0.375 1.9375 -1 4 C-1.99 4.495 -1.99 4.495 -3 5 C-4.13350534 7.01669827 -4.13350534 7.01669827 -5 9 C-6.32 8.67 -7.64 8.34 -9 8 C-8.21366078 6.85050412 -7.42073742 5.70551011 -6.625 4.5625 C-6.18414062 3.92441406 -5.74328125 3.28632812 -5.2890625 2.62890625 C-3.63708041 0.54140161 -2.66927652 0 0 0 Z " fill="#56A8D1" transform="translate(173,65)"/>
<path d="M0 0 C3.59478807 3.32850747 6.22364768 6.98971331 9 11 C8.67 11.66 8.34 12.32 8 13 C4.38652145 10.36313727 1.93227617 8.06794982 0 4 C0 2.68 0 1.36 0 0 Z " fill="#B8E3F0" transform="translate(192,53)"/>
<path d="M0 0 C0.66 0.99 1.32 1.98 2 3 C0.98819642 6.77126791 0.32378142 7.78414572 -3 10 C-3.99 9.67 -4.98 9.34 -6 9 C-4.02 6.03 -2.04 3.06 0 0 Z " fill="#234468" transform="translate(85,184)"/>
<path d="M0 0 C0.66 0 1.32 0 2 0 C2.6875 1.6875 2.6875 1.6875 3 4 C1.8125 6.75 1.8125 6.75 0 9 C-1.32 9 -2.64 9 -4 9 C-2.80100302 5.9168649 -1.52299523 2.93720508 0 0 Z " fill="#0F2B51" transform="translate(131,206)"/>
<path d="M0 0 C3.9252025 3.70090521 6.94580156 7.54959656 10 12 C9.67 12.66 9.34 13.32 9 14 C4.19996187 9.19996187 1.72658132 6.6596708 0 0 Z " fill="#B7BFCA" transform="translate(276,170)"/>
<path d="M0 0 C4 2 4 2 5 4.375 C5 7 5 7 3.0625 9.3125 C2.381875 9.869375 1.70125 10.42625 1 11 C0.67 7.37 0.34 3.74 0 0 Z " fill="#6ABDDD" transform="translate(201,70)"/>
<path d="M0 0 C1.2077558 3.62326739 0.54311128 4.64146369 -1 8 C-1.66 8 -2.32 8 -3 8 C-3.33 8.99 -3.66 9.98 -4 11 C-4.66 11 -5.32 11 -6 11 C-4.74194623 6.49197399 -3.09592835 3.5087188 0 0 Z " fill="#295A7F" transform="translate(168,157)"/>
<path d="M0 0 C0.66 0.33 1.32 0.66 2 1 C1.67 1.99 1.34 2.98 1 4 C0.34 4 -0.32 4 -1 4 C-1.268125 4.598125 -1.53625 5.19625 -1.8125 5.8125 C-2.98493467 7.97224808 -4.19369282 9.35790256 -6 11 C-5.67 8.69 -5.34 6.38 -5 4 C-4.01 4 -3.02 4 -2 4 C-2 3.34 -2 2.68 -2 2 C-1.34 2 -0.68 2 0 2 C0 1.34 0 0.68 0 0 Z " fill="#145583" transform="translate(110,153)"/>
<path d="M0 0 C3.9252025 3.70090521 6.94580156 7.54959656 10 12 C9.67 12.66 9.34 13.32 9 14 C4 8.25 4 8.25 4 6 C3.01 6 2.02 6 1 6 C0.67 4.02 0.34 2.04 0 0 Z " fill="#C3C7D1" transform="translate(266,156)"/>
<path d="M0 0 C0 4.95110601 -2.2946129 8.94191935 -5 13 C-5.66 12.67 -6.32 12.34 -7 12 C-5.44298069 7.32894208 -2.91552627 3.91294315 0 0 Z " fill="#9FBECF" transform="translate(129,120)"/>
<path d="M0 0 C1.32 0.33 2.64 0.66 4 1 C1.69 3.64 -0.62 6.28 -3 9 C-3.33 7.68 -3.66 6.36 -4 5 C-2.0625 2.25 -2.0625 2.25 0 0 Z " fill="#4C9BC1" transform="translate(159,80)"/>
<path d="M0 0 C4.92307692 4.30769231 4.92307692 4.30769231 5.3125 7.8125 C5.209375 8.534375 5.10625 9.25625 5 10 C2 9 2 9 0.8125 6.6875 C0 4 0 4 0 0 Z " fill="#909FB5" transform="translate(250,134)"/>
<path d="M0 0 C0.99 0.33 1.98 0.66 3 1 C1.85793642 2.50287218 0.71125043 4.00223284 -0.4375 5.5 C-1.39462891 6.75296875 -1.39462891 6.75296875 -2.37109375 8.03125 C-2.90863281 8.6809375 -3.44617188 9.330625 -4 10 C-4.33 10 -4.66 10 -5 10 C-5 8.35 -5 6.7 -5 5 C-4.01 5 -3.02 5 -2 5 C-1.34 3.35 -0.68 1.7 0 0 Z " fill="#253D5C" transform="translate(178,202)"/>
<path d="M0 0 C0.33 0.66 0.66 1.32 1 2 C0.0625 4.125 0.0625 4.125 -1 6 C-1.66 6 -2.32 6 -3 6 C-3 6.66 -3 7.32 -3 8 C-3.99 8 -4.98 8 -6 8 C-6.66 9.32 -7.32 10.64 -8 12 C-8 9 -8 9 -5.6875 6.5625 C-4.800625 5.716875 -3.91375 4.87125 -3 4 C-1.97186389 2.68824014 -0.95915568 1.3630107 0 0 Z " fill="#88B6CC" transform="translate(145,100)"/>
<path d="M0 0 C0.66 0.33 1.32 0.66 2 1 C0.88321917 2.6721852 -0.24366352 4.33762803 -1.375 6 C-2.00148438 6.928125 -2.62796875 7.85625 -3.2734375 8.8125 C-3.84320313 9.534375 -4.41296875 10.25625 -5 11 C-5.66 11 -6.32 11 -7 11 C-5.5140084 6.40693504 -3.14985318 3.56430755 0 0 Z " fill="#D1DCE8" transform="translate(116,205)"/>
<path d="M0 0 C0.66 0 1.32 0 2 0 C1.67 2.31 1.34 4.62 1 7 C-0.32 7.33 -1.64 7.66 -3 8 C-1.125 1.125 -1.125 1.125 0 0 Z " fill="#144772" transform="translate(120,192)"/>
<path d="M0 0 C0.33 0.66 0.66 1.32 1 2 C0.06421005 4.35981813 -0.93347808 6.69631264 -2 9 C-2.99 9 -3.98 9 -5 9 C-5 9.66 -5 10.32 -5 11 C-5.66 10.67 -6.32 10.34 -7 10 C-3.535 5.05 -3.535 5.05 0 0 Z " fill="#355779" transform="translate(93,173)"/>
<path d="M0 0 C1.32 0 2.64 0 4 0 C3.50168276 3.68754757 2.89932357 5.60490662 0 8 C-0.98120464 4.94736336 -0.98120464 3.05263664 0 0 Z " fill="#1C5781" transform="translate(130,176)"/>
<path d="M0 0 C0.66 0.33 1.32 0.66 2 1 C2 1.66 2 2.32 2 3 C2.66 3 3.32 3 4 3 C4.33 2.34 4.66 1.68 5 1 C4.67 2.32 4.34 3.64 4 5 C3.34 4.67 2.68 4.34 2 4 C2 4.66 2 5.32 2 6 C0.68 5.34 -0.64 4.68 -2 4 C-2 3.01 -2 2.02 -2 1 C-1.34 0.67 -0.68 0.34 0 0 Z " fill="#166190" transform="translate(139,160)"/>
<path d="M0 0 C0 0.66 0 1.32 0 2 C0.66 2 1.32 2 2 2 C2 3.65 2 5.3 2 7 C0 5.625 0 5.625 -2 4 C-2 3.34 -2 2.68 -2 2 C-3.98 2.33 -5.96 2.66 -8 3 C-8 2.34 -8 1.68 -8 1 C-2.25 0 -2.25 0 0 0 Z " fill="#164971" transform="translate(216,154)"/>
<path d="M0 0 C0.99 0 1.98 0 3 0 C3 1.65 3 3.3 3 5 C3.66 5.33 4.32 5.66 5 6 C4.01 7.485 4.01 7.485 3 9 C0.9375 6.1875 0.9375 6.1875 -1 3 C-0.67 2.01 -0.34 1.02 0 0 Z " fill="#3A527A" transform="translate(192,117)"/>
<path d="M0 0 C0.20086443 3.71599191 0.1519437 4.77208445 -2 8 C-2.99 7.67 -3.98 7.34 -5 7 C-4.6875 4.625 -4.6875 4.625 -4 2 C-1 0 -1 0 0 0 Z " fill="#1B3E64" transform="translate(111,208)"/>
<path d="M0 0 C0.66 0.33 1.32 0.66 2 1 C-0.31 3.97 -2.62 6.94 -5 10 C-5.99 9.67 -6.98 9.34 -8 9 C-5.36 6.03 -2.72 3.06 0 0 Z " fill="#D1D7E2" transform="translate(179,205)"/>
<path d="M0 0 C0 0.66 0 1.32 0 2 C1.32 2.33 2.64 2.66 4 3 C-0.95 3.33 -5.9 3.66 -11 4 C-7.61125486 1.74083657 -4.15175481 0 0 0 Z " fill="#094D7A" transform="translate(196,185)"/>
<path d="M0 0 C5.28 0 10.56 0 16 0 C16.33 0.66 16.66 1.32 17 2 C16.34 2.66 15.68 3.32 15 4 C14.67 3.34 14.34 2.68 14 2 C10.72444392 1.52998967 10.72444392 1.52998967 6.9375 1.375 C5.00197266 1.26285156 5.00197266 1.26285156 3.02734375 1.1484375 C1.52880859 1.07496094 1.52880859 1.07496094 0 1 C0 0.67 0 0.34 0 0 Z " fill="#23435F" transform="translate(224,189)"/>
<path d="M0 0 C1.98 0.495 1.98 0.495 4 1 C4 2.65 4 4.3 4 6 C3.01 6 2.02 6 1 6 C1 5.34 1 4.68 1 4 C0.34 3.67 -0.32 3.34 -1 3 C-0.67 2.01 -0.34 1.02 0 0 Z " fill="#1D2E48" transform="translate(266,161)"/>
<path d="M0 0 C0.33 0.66 0.66 1.32 1 2 C0.0625 4.625 0.0625 4.625 -1 7 C-1.66 7 -2.32 7 -3 7 C-3 7.66 -3 8.32 -3 9 C-3.99 8.67 -4.98 8.34 -6 8 C-4.02 5.36 -2.04 2.72 0 0 Z " fill="#3A698A" transform="translate(111,148)"/>
<path d="M0 0 C0.33 0 0.66 0 1 0 C1.1875 2.375 1.1875 2.375 1 5 C-2 7 -2 7 -4.6875 6.625 C-5.450625 6.41875 -6.21375 6.2125 -7 6 C-4 4 -4 4 -1 4 C-0.67 2.68 -0.34 1.36 0 0 Z " fill="#173359" transform="translate(172,208)"/>
<path d="M0 0 C0 2.95274099 -0.43891831 4.49058403 -1.5 7.1875 C-1.7784375 7.90292969 -2.056875 8.61835938 -2.34375 9.35546875 C-2.5603125 9.89816406 -2.776875 10.44085938 -3 11 C-3.66 10.67 -4.32 10.34 -5 10 C-3.14285714 2.42857143 -3.14285714 2.42857143 0 0 Z " fill="#7C8EA2" transform="translate(141,190)"/>
<path d="M0 0 C0.99 0.33 1.98 0.66 3 1 C0.03 4.96 0.03 4.96 -3 9 C-3.33 7.68 -3.66 6.36 -4 5 C-2.68 4.34 -1.36 3.68 0 3 C0 2.01 0 1.02 0 0 Z " fill="#294362" transform="translate(187,191)"/>
<path d="M0 0 C2.5 2.25 2.5 2.25 5 5 C5 6.32 5 7.64 5 9 C2.1997768 7.5998884 1.43223902 5.73427449 0 3 C0 2.01 0 1.02 0 0 Z " fill="#142645" transform="translate(277,176)"/>
<path d="M0 0 C3.33557632 2.9905167 5.15083921 5.93184627 7 10 C5.109375 9.78515625 5.109375 9.78515625 3 9 C1.953125 6.93359375 1.953125 6.93359375 1.25 4.4375 C1.00765625 3.61121094 0.7653125 2.78492187 0.515625 1.93359375 C0.34546875 1.29550781 0.1753125 0.65742187 0 0 Z " fill="#4D6387" transform="translate(230,108)"/>
<path d="M0 0 C3.39417765 3.12621626 5.6062718 5.56541027 7 10 C5.82174642 9.09827532 4.65768423 8.17798498 3.5 7.25 C2.8503125 6.73953125 2.200625 6.2290625 1.53125 5.703125 C0 4 0 4 0 0 Z " fill="#C1C6CD" transform="translate(296,198)"/>
<path d="M0 0 C0.99 0 1.98 0 3 0 C1.8141763 3.37503669 0.72426311 5.64722731 -2 8 C-1.125 1.125 -1.125 1.125 0 0 Z " fill="#5CAACC" transform="translate(192,90)"/>
<path d="M0 0 C0.66 0.99 1.32 1.98 2 3 C1.0409375 3.433125 1.0409375 3.433125 0.0625 3.875 C-2.15206079 4.82823451 -2.15206079 4.82823451 -3 7 C-3.33 5.68 -3.66 4.36 -4 3 C-2.68 2.67 -1.36 2.34 0 2 C0 1.34 0 0.68 0 0 Z " fill="#286284" transform="translate(116,143)"/>
<path d="M0 0 C0.66 0 1.32 0 2 0 C1.43628586 3.26954202 0.50037734 4.82575883 -2 7 C-2.66 6.67 -3.32 6.34 -4 6 C-2.7260411 3.96166576 -1.38938077 1.96147874 0 0 Z " fill="#4480A1" transform="translate(137,111)"/>
<path d="M0 0 C1.32 1.32 2.64 2.64 4 4 C3.01 4.495 3.01 4.495 2 5 C1.67 5.66 1.34 6.32 1 7 C0.34 6.34 -0.32 5.68 -1 5 C-0.625 2.375 -0.625 2.375 0 0 Z " fill="#3F5882" transform="translate(219,93)"/>
<path d="M0 0 C0.66 0 1.32 0 2 0 C2 1.32 2 2.64 2 4 C2.66 4.33 3.32 4.66 4 5 C2.02 5 0.04 5 -2 5 C-1.34 3.35 -0.68 1.7 0 0 Z " fill="#153358" transform="translate(67,210)"/>
<path d="M0 0 C-0.33 1.32 -0.66 2.64 -1 4 C-2.32 4 -3.64 4 -5 4 C-5.33 4.66 -5.66 5.32 -6 6 C-5.6875 4.125 -5.6875 4.125 -5 2 C-2 0 -2 0 0 0 Z " fill="#206B97" transform="translate(152,151)"/>
</svg>
